<?xml version="1.0" encoding="utf-8"?><svg xmlns="http://www.w3.org/2000/svg" version="1.1" baseProfile="tiny" width="800" height="600" viewBox="0 0 800 600"><g><g stroke="#000000" stroke-width=".98" fill="#FFFFFF"><path d="m534.32 219.61l-.89 2.74-.6 1.59.95.33-.94 1.2.72 1.75.17 1.39 1.67.37.18 1.42-1.99 1.99 3.67 1.12 2.2-.33 1.31.28.44-.48 1.53.19 2.85-.91.08-1.87 1.22-1.24 1.64 0 .24-.61 1.67-.29.82.21.85-.62-.12-1.32.93-1.32 1.4-.56-.86-1.45 2.09.07.6-.79-.09-.84 1.09-.93-.25-1.09-.52-.93 1.28-.95 2.36-.46 2.52-.26 1.11-.41 1.28-.24-.39-.63-2.26 0-1.51-.17-1.37.99-.98.21-.76.47-.87-.72.2-1.85-.66-.1.24-.67-1.19-.5-.94.76-.24.89-.33.32-1.31-.05-.71 1.01-.74-.42-1.59.7-.67-.27-1.66-.46-1.22-.02-.66-.06-1.03-.59-.35.78-1.85.43-.44 1.75-1.23.67-1.74.33-.45.99-1.66.3-2.24-.84z" /><path d="m435.83 310.74l-6.48-.03-.77.27-.63-.04-.91.29-.21.43 1.1 1.39.45 1.47.67 2.12-.68.87-.12.45.54 1.32.59 1.33.65.78.12 1.25-.23 1.62-.71.98-1.26 1.44-.52.89-.71 1.98-.12.94-.75 2.01-.31 1.93.21 1.38 1.06-.41 1.31-.38 1.42.07 1.31.99.33-.15 8.9-.1 1.52 1.05 5.31.31 4.03-.89-1.43-1.37-1.48-1.8.1-6.98 4.57.03-.18-.76.32-.82-.38-1.03.25-1.07-.24-.68-1-.13-1.35.33-.96-.05-.54.2.12-2.61-.74-.82-.16-1.35.33-1.32-.45-.84-.04-1.39-2.66.02.19-.79-1.12.01-.12.38-1.36.09-.55 1.28-.33.54-1.21-.31-.73.31-1.45.18-.84-1.15-.5-.71-.63-1.31-.54-1.64z" /><path d="m427.29 310.32l.07-.96.36-.56.8-.46-.82-.76-.67.37-.88.95.58 1.65.56-.23z" /><path d="m445.18 206l-.14-.8-.53-.22-.47-.59-.59.19-.14-.41-.95 1.08.15.7.37.34-.3.68-.19 1.5.2 1.05 1.21.73.04.49.38.15 1.02-1.06.13-.72.71-.32.05-.57-.91-.54-.31-.94.27-.74z" /><path d="m513.19 244.64l.08.51.84 2.22 6.6 1.11.44-.47.06-.88.64-.91 0-.9 1-.43-.39-.3.18-1.43 1.12-.01-.3-1.73-.42-.75-1.38 1.35-1.64 1.41-1.5 1.48-1.33-.06-1.81-.06-1.72.34-.08-.6-.39.11z" /><path d="m256.26 418.98l.99-1.1-3.07-.55-2.85-1.31-1.1-1.65-.84-1.02 0 4.9 2.35 0 1.32.06 1.12.78 2.08-.11z" /><path d="m257.44 346.29l-2.87-.54-1.83 1.99.26.55-.75 2.28-2.39 1.08.07 3.66-.46.7.66.86-1.55 1.37-1.44 2.06-.78 1.99.21 2.13-1.36 2.25 1.02 3.79.57.4-.01 2.02-1.25 2.14.05 1.84-1.66 1.43 0 2.02.67 2.14-1.31.79-.59 1.96-.52 2.25.38 2.67-.89.45.52 2.53.99.83-.73.93 1.02.43.24.83-.96.42.23 1.29-.8 2.9-1.16 1.87.25 1.11-.69 1.4-1.69.96.2 2.33.77.79 1.46-.14-.04 1.65.91 1.28 5.3.29 2.03.34.93.11-1.46-1.27-.71-2.28.9-1.02 2-.87 1.43-2.57 2.59-1.24.75-1.97-2.09-.44-2.16-1.61.63-1.64 1.72-1.13 2.07 0 .52-1.18.32-2.21 1.76-1.36 2.02-.68-.65-1.14-1.2.69-1.48-.66-.31-2.18.85-.58 2.11.8 2.25-.3 1.31-.77-.4-1.11.45-1.64-.46-1.31 2.41.22 4.4-.46 3.25-1.17 2.11-2.82.11-1.07-1.37-.95.3-1.52-2.78-1.88.15-1.14.17-1.42.47-.49-.02-2.18.59-2.26.54-1.76 2.93-2.99 2.48-2.13 1.47-.89 1.85-1.21.05-1.76-1.11-1.26-1.08.42-.36 1.94-1.99 1.68-1.74.35-2.46-.34-2.21-.59 2.16-3.34-.32-.97-2.26-.86-2.68-1.62-1.79-.33-4.04-3.58-.35-.47-2.51-.09-.85 1.76-1.29-1.58z" /><path d="m495.64 207.67l.37.77-.21 1.07 1.63.55.87.64.45-.06.65.59.97-.01-.01.34.9 1.27.79-.06-.04-1.53-.99-.36-.93-.59.62-.7-1.17-.75.44-.56-.84-.37-.45-.58-3.05.34z" /><path d="m269.27 473.49l-2.28-.9-1.16.77-1.63.9-4.73-.21-4.94-.09 1.2.65 0 .08 2.75.73 4.9-.13 4.6.31.65-.99.64-1.12z" /><path d="m50.63 472.3l-.61-.99-1.67-.78-2.19-.68-4.09-.35-1.33.82 1.42.6.09.13 1.28.77 2.88.78 4.22-.3z" /><path d="m300.91 469.12l-3.31-.48-3.27.48-1.11 0 0 0-1.42.9-1.33.77-.99.82-1.38.95-1.89.73-4.68.6-.39.9 2.88.73 5.2.13 4.6-.43 4.12-.52 3.57-.55 3.4-.69-.09-1.12-.26-.95-.94-1.33-2.71-.94z" /><path d="m134.01 459.14l-2.62-.39-.48.73 0 0 2.2.78 3.05.17 2.06-.56 1.25-.77-2.63.38-2.83-.34z" /><path d="m124.47 459.1l-2.2-.52-1.59.47 0 0 3.01.6 2.84.22 1.29.09-3.35-.86z" /><path d="m182.79 455.7l-3.18-.17-2.79-.3-1.38.38 1.16.91 2.24.43 2.96-.13 2.71.08 2.66-.08 1.72.17-1.29-1.25-2.4.26-2.41-.3z" /><path d="m249.79 453.55l-.6-.99-.74-.94-.94-.99-.52-.82-1.16-.81-2.02.34-1.24 1.03.04 1.76-.13.82-.64 1.12-2.54-.09-1.5.26 0 0-2.41.86.13.9 1.67.65 2.45-.3 2.58-.3-1.07.86 2.88.04 2.45-.43 2.58-.3.6-.82.39-.86-.26-.99z" /><path d="m271.37 438.62l-.94.48-1.63-.35-1.81.22-1.5.51-1.59.56-1.08.65-.3.86.13.82 1.03.73-1.5.51-2.07.17-1.2.74-1.29.68-1.37.95-.35.82.78.9 1.16.69 1.8.51 1.68.69.9.86.47.82.65.86 1.03.73.64.82.3 2.02.65.81.17.86.69.86-.3 1.17-1.21.9-1.29.73-2.92.3-.99.77-1.33.74-3.31.81-2.92.35-2.75.47-2.97.47-1.76.91-3.52.08-3.87-.08-3.48.17-3.7 0 .69.86 3.35.38 2.45.61 1.38.77-2.45.69-3.79-.22-3.13.56-.13.91-.09.86 2.58.73.47.81 2.8.82 4.64.34 3.95.61 3.14.68 4 .69 5.46.35 5.37.6 3.74.64 4.08.73 2.15 1.04 1.07.81 2.67-.77 3.61-.65 3.82-.68 4.56-.56 3.91-.6 5.46-.05 5.37.3 4.43.52 1.42-.95 3.05-.64 5.54-.04 4.34-.48 4.13-.47 4.56-.3 4.85-.39 3.4-.56-1.55-.77-.94-.78 0-.81-4.26.08-4.51.35-4.3 0-.6-.82.3-1.63.99-.48 3.14-.51 3.69-.52 2.67-.64 2.66-.65 1.98-.86 3.01-.39 2.96-.3 1.51-.17 3.39-.08 3.23-.31 2.7-.43 2.67-.51 2.41-.52 3.05-.69 1.93-.73 2.06-.64.65-.86-2.32-.52.77-.9 1.46-.69 2.28-.43 2.41-.51 2.23-.69 1.72-.86 1.08-1.03 1.59-.61 2.62.13 1.07.73 2.62.09.09-.82 1.12-.86 2.36.22.56.81 2.62.13 2.84-.38 2.75-.26 2.49.13.95.9 2.41-.73 2.23-.39 2.49-.3 2.45-.3 2.24-.52 2.45-.34 1.89-.47 1.33-.78 1.63.56 2.28-.3 1.59 1.03 1.25.78 2.49-.43.99-.86 2.24-.6 2.88.12.85.82 1.81-.82 2.36-.25 2.58-.09 2.32.04 2.45.26 2.37.13 1.03.73 1.42.65 2.4-.39 2.58-.09 2.5 0 2.45-.04 2.19-.3 2.32-.26 1.93-.6 2.07-.39 2.23-.21 1.68-.6 1.2-1.21 1.25-.73 2.27.34.86.78 1.9.51 2.27-.17 1.55.78 1.63.56 2.24-.52.77-.95 1.98-.38 2.28-.73 2.15-.31 2.58-.43 1.71-.47 1.81-.51 1.72-.48 2.06.26 1.98-.77 1.42-.61 2.06.05 1.81-.52.43-.77 1.84-.6 1.81-.43 2.19-.35 2.02-.17 1.94.13 2.06.21 1.76.61.22.94 1.93.73 1.33.6 2.62.26 1.46.6 1.81.61 2.11.13 1.76-.43 1.89-.91 2.06.48 2.15.25 2.06.26 2.15.17 2.2 0 1.8 2.28-.09.56-.25.99-2.11.56-1.72.82.3.86 2.45-.05-.3.86-1.12.82-1.03.9 1.68.69 2.53.22 2.54-.39 1.2-.86.73-.82 1.21-.69 1.37-.64.56-.77 1.16-1.08 1.38-.21 2.49-.09 2.19-.26 2.24-.34 1.07-.86.65-.82 1.5-.82 2.15-.56 1.85-.43 1.2-.73 1.25-.38 1.59-.35 2.19.22 1.98-.22 2.15-.26 2.4.13 1.59-.6 1.12-1.46.82.6 1.03 1.03 1.85.43 2.1.18 2.11-.26 2.23.17 2.07.04 1.37-.21 1.85.13 1.68.47 1.97-.3 2.37 0 2.02-.3 2.28.3 1.46-.73 1.11-.73 1.51-.61 2.75-1.63 1.42.3 1.67.6 1.47.78 2.79 1.33 2.15.04 2.02 0 2.36-.25 2.37-.31 1.8-.6 1.51-.64 2.45-.09 1.63-.47 1.72.43 1.12.69 1.54.68 2.41-.08 1.5.56 2.63.56 2.75.21 2.27-.17 1.72-.69 1.47-.69 1.97-.17 1.98.3 2.28.22 2.06-.35 1.98 0 1.93.22 2.02.21 1.98-.38 2.36-.35 2.24-.08 2.49 0 2.02-.22 1.98-.17.6-1.08.09-.9 1.37.6.39.99.73.91.9.73 1.85.38 2.49-.13 2.88-.04 1.98-.13 2.88 0 2.06-.04 2.88.09 2.45.17 1.55.69-.43.81 1.42.65 2.36.51 2.45.56 2.84.39 2.96.34 2.24.35 2.49.04 1.42-.73 1.93.6 1.68.69 1.93.52 2.67.21 2.53.26 1.08.86 2.49.51 1.68.78 2.45.34 2.53-.04 2.37.13 2.62-.04 2.62.17 2.45.3 2.28.51 2.28.43 1.54.65-.25.86-1.16.77-.99.99-.78.78-1.03.9-2.88.34-1.29.78-2.83.47-.99.86-1.51.82-1.59.69-.9.9-.56.82-.21.98.04.82 1.25.86.47.82 1.03.77 4.08.3.86.95-3.95.34-3.35.48-4.17.08-1.85 1.25-.39 1.03-.94.82-1.16.82 2.92.73 1.12.9 1.89.82 2.66.73 3.05.69 3.31.68 5.03.69 1.12 1.08 6.32.47.42.17 1.64.65 6.06-.56 5.03.69 3.78.52-789.87.02 1.94-1.28 3.95.69.25-.07 2.32-.7.3.02.26.02 3.18.91 2.78-.91.49-.13 6.45-.38 2.09.51 1.03.26 3.31.73 6.23.56 4.94.69 8.47.51 6.32-.6 9.33.43 5.28.69 5.8-.65 6.11-.6.47-1.03-8.64-.09-7.09-.51-1.85-.86-5.89-.47.39-.99.82-.91.81-.81-.43-.91-3.65-.6-1.68-.77-3.39-.69 5.33.13 5.07-.35 3.18.74 3.91-.65 3.61-.82 1.76-.73-.77-.9-2.84-.6-3.22-.65-4.51-.13-3.96-.3-4.25-.21-1.42-.82-2.84-.69-1.72-.77-.68-2.5 1.07.22 1.98.69 3.61-.22 3.48-.3 1.81.95 3.48-.22 2.92-.47 2.75-.6 2.49-.73 3.31-.22-.08-.82-.78-.81.65-.78 2.83-.38 1.29.73 3.36-.43 2.53-.56 3.14-.04 2.96-.22 2.97-.52 2.36-.47 2.67-.47 1.72.13 1.5.17 3.27-.3 2.92.39 3.01-.05 2.88-.3 2.97.22 3.26.21 3.05-.08 3.18.04 3.27.04 3.01-.08 2.23-.65 2.67-.34 2.75.47 2.62-.39 2.37-.77 1.41.69.78.77 1.42.73 2.27-.64 2.63.81 2.96.26 2.54.6 3.09-.13 2.8-.38 3.3.08 2.97.3 3.01.39 1.16-.94-1.42-.74-1.07-.77-2.84-.17-1.25-.82-.47-.82-.77-1.63 1.67.3 2.88.13 2.84-.13 2.58.35 2.23.64.95.77 2.96.13 2.84-.3 3.01-.43 2.71-.26 2.23.52 2.93-.17 1.89-1.68 1.76.99 2.53.39 2.76-.22 1.8.86 2.88.09 2.66.26 2.63.47 1.72-.82.86-.77 2.19.86 3.01-.22 2.23.48 1.51.73 2.92-.22 2.28-.47 2.23-.56 2.67-.3 3.09-.26 2.79-.3 2.15-.47 1.29-.69.52-.95-.26-.9-.69-.86-.77-.86-.69-.86-.56-.77-.13-.86.22-.86 1.03-.82.86-.9.34-.86-.43-.95-.25-.86 1.07-.99 1.2-.64 1.42-.82 1.51-.69 1.76-.64.86-.95 1.2-.6 1.38-.56 2.1-.13 1.38-.69 1.55-.43 1.8-.26 1.59-.55 1.25-.69 1.72-.26 1.29.56-.82.73-2.24.64z" /><path d="m551.27 404.55l-.14.45-.33.91.06 1.16 3.37-.14.61-1-.08-.41-2.07-.28-1.42-.69z" /><path d="m719.07 387.36l-1.44-.19-.05 1 1.26 1.92.3 1.44 1.36 1.88 1.34.07.46.12 1.52-1.53.77.6.23-1.76.75-.76-.16-2.61-1.31-.14-1.72.42-1.19.3-2.12-.76z" /><path d="m715.04 328.05l.08-.8-.17-1.24-.8-1.12-.09-.92-.55-.26-.15-1.38-.62-1.07-.81.82-.06.62-.42 1.21-.53 1.16.35.74-.42.44-.29 1.65.25 1.26-.16.64.31 1.06-.67 1.75-.27 1.2-.45.97-.43 1.18-1.45.75-2.09-.74-.33-.68-1.15-.56-.62 0-1.59-1.3-1.13-.76-1.69-.7-1.74-1.21-.16-.62.78-1.08.64-1.1-.25-.87.75-.08.84-.88.58-1.18-1-1.08-.52.42-.82-.19-1.28.62-1.37-.67-.62.22-1.85-.56-1.17-.9-1.45-.54-1.17.31 1.61.73.04 1.12-1.84.41-1.13-.26-1.33.78-.95 1.25.34.55-.99.57-1.05 1.76.47 1.21-1.4-.21-1.37-.02-1.22-1.29-1.62-1.01-1.06.29-.97.32-.04.55-.96-.26-.03.62-1.11.37-.53.87-1.2 1.08-.26 1.67-.97-.48-.69 1.07.78 1.03-.93.44-.93-1.89-1.53 1.86-.06 1.19-.1.88-1.28 1.11-.56 1.18-1.2.97-2.3.64-1.22-.05-.58.2-.33.48-1.33.25-1.73.81-.61-.27-.99.17-1.68.81-1.07.94-1.78.73-.93 1.51-.16-1.67-.91 1.58.23 1.28-.3 1.1-.45.54-.23 1.27.5.65.21.69 1.09 1.73.04 1.13-.65-.85-1.09-.64.74 2.04-.96-.95.3.93 1.25 1.74.28 1.72.97.87.06.65.87 1.43-.1 1.25.36 1.25 1.16 2.22.25 1.3-.27 1.52.08.79-.37.5-1.09.3-.05 1.26 1.18.41 2.33 1.41 1.47 0 1.6.08 1.05-.69 1.1-.63.64.1 1.31-1.17 1.51-.1 1.57-.24 1.94.4 1.38-.19 1.86-.05.81-.9.43-1.15 1.9-.5 2.33-1.13 2.09.15 2.5-.74 2.84-.78 3.93-.21 2.11 1.07 1.54.06 2.82 1.33-.42.51 1.16.82 1.37 1.59-.06 1.17 1.71.9.84-1.75 1.37-.75 1.79-1.87.17 1.63-.85 1.07-.33 1.27-1.15 1.21 1.96-.4 1.07-1.52.53 1.63-.72 1.06 2.11.27 1.08.89.51 1.11.41 1.66 1.41 1.36 2.13.63 1.25.16 1.25.35 1.89.59 1.93-1.59 1.2-.41-.35 1.14 1.35.39 1.82.97 1.32-.94 1.01-.85 2.03-.9 2.45-.08 1.26-.77-.11-.69.28-1.51.56-1.64.84-1.1.65-1.89.74-1.09.8-1.7 1.62-1.08.97-1.99.44-1.57-.05-1.26.59-1.96.38-1.02.13-1.94-1.05-1.86.16-1.36-.06-1.25-.62-1.77-1.71-1.77-1.02-.84-1.56-1.35-.38-2.32-.53.33-.89-.95-.88.48-.85-2.37-1.26-1.38.29-.53-1.47-.95-1.55-1.05-2.38-1.14-.71-1.49.21-1.14-.59-1.87-.56-.27-.33-1.1-.47-1.88.23-.97-1.06-.86-.72-.93-1.41.83-.79-1.72z" /><path d="m437.26 192.24l-.22-.76.18-.28-1.01-.41-1.03.11-1.71-.67-.77.17-1.23.89-1.63-.7-.78 1.01-.79.28.31 1.43-.2.37-.68-.45-1.06-.07-1.57.4-1.93-.1-.31.58-1.11-.61-.67.12.09.39-.34.54 1 .4 1.12.06 1.33.31.25-.42 2.17-.38.49.77 3.14.56 1.81.17 1.11-.49 1.92-.06.42-.37.72-1.41-.42-.48 1.23 0 .17-.9z" /><path d="m498.75 210.64l-.45.06.35.83 1.1 1.01 1.51.29-.9-1.27.01-.34-.97.01-.65-.59z" /><path d="m503.96 207.39l-1.51-1.33-.62-.08-.57.31 1.08 1.18-.29.26-1.19-.13-1.63-.63-.54.36.45.58.84.37-.44.56 1.17.75-.62.7.93.59.99.36.04 1.53 2.59-1.62.83-.17.64.65-.75 1.08 1.37 1.15.54-.11-.06-1.08.81-.52.38-.76.38-1.71 1.8-.18-.67-.59-1.02-.1-1.12-1.56-1.15-1.15-1.31.88-.38.56-.97-.15z" /><path d="m464.38 307.72l.91-.1.8-.8.85-1.14.54-.46-.02-.72-.47-.49-.13-.87-1.16-.14-.67 1.25-1.34-.17.56.99.13 2.65z" /><path d="m407.27 185.17l-1.75.43.31.77 1.02.04 1.02.88 1.54 1.04 1.12-.17 1.92 1 .24-1.24.57-.08.25-1.48-1.21-.51-1.38-.96-2.04.45-1.61-.17z" /><path d="m405.91 284.11l.12-3.54-.05-1.39.41-1.39.68-.67 1.06-1.36-.23-.59.43-.88-.49-1.3.08-.73-1.67-1.27-.79.01-.73.64-.48.66-1.07.2-.45.96-.76.25-.28 1.16.68.65.76.76.08 1.08.44.45-.1 5.04.54 1.52 1.82-.26z" /><path d="m393.8 276.69l-.3-1.66.05-1.24 3.81-.11.97.16.71-.35 1.01.18 1.92.04.76-.25.45-.96 1.07-.2.48-.66.05-1.5-2.53-.5-.07-1.06-1.24-1.43-.29-1 .17-1.07-1.4.01-.55-.42-1.21.32-2.05.91-.42.68-1.7.99-.3.56-.92.45-1.06-.3-.6.54-.33 1.5-1.74 1.82.05.74-.59.93.14 1.28.99.48.38.72.99.46.77-.55 1.02-.08 1.51.57z" /><path d="m603.37 249.48l-1.16-3.48-.61 0-.36 1.41-1.2-1.14.68-1.25.98-.13 1.01-1.85-1.26-.38-2.04.03-2.08-.3-.2-1.52-1.05-.11-1.73-.95-.78 1.49 1.59 1.16-1.38.82-.48.8 1.35.59-.38 1.32.76 1.65.35 1.81.84.19.63.24.32-.4.93.45.69-1.22-.2-.91 2.02.09.92 1.28.41 1.05.13 1.12.63 1.14-.15-1.76.77.33.05-1.57z" /><path d="m449.72 200.77l-.54.5.2.8 1.06.95-.84.69-.36.7.23.26-.36.31 1.1.7.16 1.45 1.62.06 1.76-.6 1.54.77 2-.21.02-1.09 2.24-.69 1.89.29-.71-1.25.8-1.57 1.14-.91-1.29-.23-1.6-.8-2.58.51-1.09.56-3.22-.11-1.69-.34-.85.16-.63-.91z" /><path d="m229.85 245.71l-.01-1.28-.77-1.82-.66-.09-.47 1.4.82.63.56 1.26.53-.1z" /><path d="m229.23 239.52l-.07-.57-1.45-.07-1.03.18.16.81 2.39-.35z" /><path d="m231.03 239.49l-1.74-.98.01.25.98.87-.03 1.14.4.28.38-1.56z" /><path d="m441.71 199.4l-1-.48-1.51.03-1.89-.37-1.02.05-.48.46-.79-.51-.46.91 1.08 1.03.47.68 1.01.82.84.48.83.92 1.94.83.32-1.21.71-.51.41-.2.52-.09.32-1.03-1.06-.85.55-.96-.79 0z" /><path d="m451.53 179.54l.1.97.61.83-.01.88-1.32.45.68 1.01.04.98 1.05-.09 1.2-.59 1.7-.05 2.22.17 2.45.53 1.72.04.83.32.82-.38.58.51 1.98-.1.87.21.14-1.11.68-.48 1.88-.13-.54-1.4-.51-.73.42-.21 1.77.08.85-.48-.63-.59-1.48-.38.13-.4-.89-.4-1.37-1.44.47-.59-.22-1.03-2.14-.52-1.16.26-.31-.54-2.31-.55-2.36.84-1.33.37.21.98-1.8.71-.51 1.24-2.38.82-2.13-.01z" /><path d="m204.38 258.77l-.02 1.74-.17 2.47.66 0 .43-.76.4-.07.43-.58.25-1.11-.14-.21.23-.78-.19-.34.36-.95.03-.6-.41-.01-.01-.32-.42.03-.78 1.32-.4-.26-.27.1.02.33z" /><path d="m257.84 226.95l-.01.01-.02 0-.03-.02-.02.01.02.01.03.02.03.01-.04.02-.01.01-.04.02-.01 0-.01.02-.02 0-.03 0-.03-.01.01-.02-.02-.01 0-.02.01-.02.03-.01-.01-.01.03-.03.02-.02.01-.01-.04.04-.03.01-.01-.01-.01.02-.01 0 0 .02-.02.02.02.05.03.03.03 0 .02 0 0 0 .02 0 .01 0 .01-.01.03-.01.04-.02.04-.01.02-.03.02-.02.03-.01.04-.04.02 0 .04-.03.04-.01.04-.02.01-.01-.01-.02.02-.01.01-.02-.04-.01-.01-.03-.03.01-.03.02-.02.01-.02.01.02.01.01 0 .01-.01.01.01.01.01.01.01 0-.02 0 0 .03 0 .02.03-.03.02-.04.01-.04-.02-.01-.03-.01 0-.01.01-.01.01-.02.01 0 .01-.01.02 0 .01-.01.01-.02.02-.03.01-.03 0z" /><path d="m262.09 346.2l.35.47.87-2.63.05-1.18 1.05-1.93 3.83-.64 2.04.03 2.04 1.13.04.67.68-.45-.21-1.25.6-.96.39-1.73-.52-1.37-1.19-.61-.24-.87.32-1.27-4.2-.09-.85-2.55.64-.04-.03-.95-.42-.64-.1-1.26-1.28-.66-1.38.03-.9-.64-1.49-.44-.86-.82-2.46-.36-2.38-1.96.17-1.47-.27-.85.24-1.64-2.87.37-1.16.82-1.92.89-.49.67-1.13.04-1.63-.18 1.9 3.53-.47.74-.11 1.55-.04 1.86-.86 1.1.39.81-.5.74.94 1.85-1.38 2.36 1.07 1.5.3 1.58 1.15.93-.69 2.12 1.18 2.46.85 3.03 1.59-.3 1.83-1.99 2.87.54 1.29 1.58.85-1.76 2.51.09z" /><path d="m273.54 364.15l1.43-.23 2.2 1.7.82-.07 2.25 1.41 1.73 1.21 1.26 1.49-.96 1.05.6 1.24 1.46-1.26 1-2.08 1.49-1.03 1.93-1.74 2.43-3.86 1.54-1.21.49-1.07.41-2.22-.36-1.21.32-1.64 1.86-2.18 2.58-1.74 2.46-.64 1.54-.98 3.45-.84 2.39 0 .51-1.31 1.78-.95.37-2.27 2.23-2.87.39-2.93.69-.87.23-1.44.61-3.38-.15-4.12.61-1.61.55-.04 1.63-1.91 1.39-2.48 3.1-3.05 1.11-1.43.88-3.63-.37-1.33-.74-2.79-.8-.69-1.87-.09-1.69-.64-2.81-2.45-3.24-1.82-3.28.09-4.27-1.17-2.55.68.36-1.21-1.07-1.29-3.65-1.34-2.76-.79-1.67 1.44-.08-2.2-3.87-.34-.69-.66 1.65-1.81-.06-1.52-1.17-.36-1.23-3.84-.54-1.21-.75.1-1.3 2.01-.67 1.62-.84.83-1.05.16-.3-.62-.49-.09-.68.59-.96-.45-1.26-.46-1.03.22-.89-.19-.22.63.37.44-.2.45-1.19-.18-.54.08-1.21-.19-.71.58-1 .39-.69.09-.24.43-1.08-.11-1.35-1.03-.16-1.01-.56-1.11.35-1.87.61-.77-.51-1.02-.75-.33.29-.97-.52-.5-1.14.09.29.62-.8.84-2.45.82-1.58.34-.63.52-1.75-.55-1.62-.28-.42.2.99.57-.09 1.47.3 1.39 1.86.18.12.47-1.57.62-.25.93-.91.36-1.63.51-.42.67-1.71.15-1.21-1.17-.41.28-.43-1.3-.61-.7-.72.76-4.28-.05.03 1.38 1.28.22-.07.84-.44-.22-1.24.36-.01 1.59.98.8.34 1.26-.05.95-.99 6.02-1.98-.11-.29.33-1.8.43-2.51 1.49-.16 1.02-.56.77.22 1.18-1.32.64 0 .92-.58.41.91 1.97 1.22 1.34-.46.94 1.45.13.83 1.17 1.94.05 1.8-1.29-.15 3.33 1 .26 1.24-.38 1.63.18 1.13-.04.49-.67 1.92-.89 1.16-.82 2.87-.37-.24 1.64.27.85-.17 1.47 2.38 1.96 2.46.36.86.82 1.49.44.9.64 1.38-.03 1.28.66.1 1.26.42.64.03.95-.64.04.85 2.55 4.2.09-.32 1.27.24.87 1.19.61.52 1.37-.39 1.73-.6.96.21 1.25-.68.45.65 1.22-.15 2.98 2.32.42.89-.43 1.48.6.42.65.2 2.01.26.85.81.09.83-.35.79.4 0 1.2-.3 1.3-.43 1.27 1.08-.42 1.11 1.26-.05 1.76-1.85 1.21-1.47.89-2.48 2.13-2.93 2.99z" /><path d="m650.61 287.91l1 1.14.46-.75 1.05.07.13-1.4.1-1.08-1.87 1.2-.87.82z" /><path d="m601.22 236.9l-.96-.59-1.16-.05-1.57-.51-1.18.56-1.45 1.63.04.44 2 .83 1.38-.34 1.85.15 1.79-.07.16-1.35-.9-.7z" /><path d="m456.29 338.52l-.85-1.75-.39-.17-1.24.5-.67 0-1.4.86-.84-.9-3.38.77-1.63.07-.07 7.82-2.16.07 0 6.41.59.33 1.3 2.08-.2 1.34.49.77 1.57-.22 1.1-.98 1.04-.66.54-1.06 1.07-.5.92.26 1.05.62 1.79.11 1.4-.52.22-.68.39-1.05 1.19-.18.66-.82.73-1.46 1.97-1.64 3.11-1.62-1.4-.99-1.7-.34-.64-1.39-.01-.77-.94-.24-2.48-2.41-.69-1.27-.44-.39z" /><path d="m433.53 281.56l-1.1 2.22-.53.4-.17 1.7.22.93-.18.65 1.04 1.15.19.78.81 1.14 1 .7.1 1 .23.64 1.15-2.04 1.31-1.17 1.48.37 1.41.12.2-1.53.86-1.11 1.17-.71 1.81.75 1.39.81 1.61.22 1.64.42.65-1.32.3-.17 1 .22 2.45-1.1.86.47.71-.07.33-.53.82-.19 1.65.23 1.41.05.72-.23-.35-.7-1.64-.86-.56-1.32-.91-.95-1.48-1.14-.02-.72-1.2-.88-1.67-.96-.76-.63-.14-.69.36-.91-.01-.9-1.27-1.37-.25-.94-1.39.38-1.11.89-1.58 2.39-2.07 1.02-2.12-.14-.62.2.22.78-1.15.76-.93.86-2.76.84-.55-.5-.36-.04-.41.56-1.81.17z" /><path d="m260.29 195.69l-.77-1.06-.83.67.55.74 2.79.93.81-.14 1.08-.9-2.04.06-1.59-.3z" /><path d="m264.37 190.09l-.06-.41-2.25-.91-2.88-.55-.76.18 2.04 1.04 2.84.69 1.07-.04z" /><path d="m128.96 191.39l-.9-1.21-2.19-.91-1.09-1.04-.74-.75-2.07-.24-1.34-.33-2.31-.48-.18.51.84 1.19 2.26.4.39.62 1.97.77.66.78 3.6 1 1.1-.31z" /><path d="m276.82 186.62l1.17-1.39.42-.59-1.02-.1-1.9.76-1.36 1.25-2.27 3.49-1.84 1.32.95.6-1.36.77.33.65 4.26.07 2.36-.13 2.11.53-1.55 1.03 1.31.08 2.54-1.9.61.27-.47 1.8 1.44.41.99-.08.93-1.93-.68-1.36-.28-1.17-1.54.38.68-1.61-2.19-.67-1.01.53-1.95-.6.77-.77-1.47-.47-1.44.74 1.46-1.91z" /><path d="m108.78 179.26l-1.04-.29-.13.7.41.97 1.11.68.81 1.01 1.32 1 .87.01-1.91-1.77.66-2.49-2.1.18z" /><path d="m226.06 161.44l-.56-.45-.9-.05-.85.66-.1.15.58.66.97.18.86-1.15z" /><path d="m220.28 160.23l.05-.43-3.02-.02-1.63 1.02.48.59 1.55.05 2.57-1.21z" /><path d="m213.12 153.76l-1.59-.17-.75 2-.28 1.73-1.9 1.09 2.97-.21.75 1.28 3.13-1.14 2.17-1.16 1.23.98 3.42.53 1.95-.69-1.57-.73-1.61.18-.2-1.05-2.51-.68-2.41-.75-1.27-.58-1.12.34-.41-.97z" /><path d="m233.52 150.49l1.42-.65.25-.3-.02-.94-1.72-.61-2.01.31-.93 1.23.55 1.07 2.46-.11z" /><path d="m190.11 146.19l-1.34-.84-.66-.41-1.32-.4-2.32-.62-1.54.95-1.93.68 3 .99 1.78-.24 2.96.66 1.37-.77z" /><path d="m201.3 145.34l-4.08-.45 1.95-1.08-2.99-2.47-2.22-.97-2.89-.35-2.6 1.59-.17 2.43 2.56.88 2.35 1.36-.99 2.2-1.77-.06-1.39 1.75.01-2.07-3.4-.75-1.95.39.25 1.36-3.2-.05-3.41.35-3.87-.99-2.45.17-2.21-1.19-1.77-.52-1.76.22-2.67.1-1.41.75 2.24.93-2.39 1.11-2.34-1.32-1.87.39-5.92.26-3.97-.47 3.09-1.09-2.96-1.12-2.15.15-3.02-.38-5.14-.8-3.35-.92-2.66-.13-.83.64-2.7.36-.29-1.66-2.93 1.48-3.71-1.96-1.51-.24-.49 1.04-1.64.51-1.51-.91-3.59.55-3.29.96-3.26-.27-2.65.69-1.93.91-2.29-.2-3.45-1.06-4.1-.52-.01 8.14-.01 12.5 2.16.06 2.14.61 1.53.96 1.95 1.44 2.13-1.23 2.21-.71 1.16 1.14 1.48.9 2.01.99 1.37 1.57 2.24 2.5 3.74 1.4.06 1.39-1.22 1.05.04 1.13 2.66 1.6.38 1.77 2.81.93-.31 1.35 1.22 1.94 3.97.91 1.57.95 4.25 2.15.29.01 6.24 0 6.51 0 2.16 0 6.69 0 6.47 0 6.58 0 6.59 0 7.46 0 7.51 0 4.54 0 .01-.85.74-.01.39 1.21.68.37 1.53.13 2.24.35 2.13.68 1.78-.28 2.7.57.72-.02 1.96-.62 2.06.79 2.14.85 1.78.73 1.7.71.22.57.51.22-.13.22.59.06.42-.22.12.52.44.34.6 0 .32.27-.27.39 2.29 1.03.46 1.99.44 1.91-.64 1.3-1.03 1.2-.48.77-.05.23.25.32.74.34.55 0 2.55-1.17 2.26-.35 2.87-1.09.04-.22-.19-.67-.36-.43.99-.35 2.16-.01 2.01 0 .71-.85.27-.17 2.32-1.58.99-.41 3.33-.01 4.05 0 .22-.54.7-.11.93-.34.78-1 .67-1.71 1.67-1.66.73.58 1.47-.37.98.63 0 2.99 1.43 1.24 2.44-.26 3.51-.08-3.81 1.82.09 1.86 1.66.16 2.45-1.58 2.18-.89 4.86-1.31 2.72-1.43-1.42-.8-.15-1.59-2.2 2.47-3.63.31-2.85-1.09-.72-1.66-.69-2.36 2.07-1.48-1.94-1.07-3.29.22-4.6 1.82-3.52 2.89-1.87.36 2.53-2.03 3.17-2.9 2.79-.98 1.84-1.57 2.27-.15 3.3.01 4.69.47 3.71-.36 2.76-1.8 3.62-.78 1.57-.77 1.6-.83-.16-2.46-.89-.83-1.7-.29-.87-1.86-1.41-.7-3.5-.57-1.97-1.25-2.92-1.24.88-1.38-2.43-2.63-2.86-2.8-1.7-1.96-1.46 1.02-2.1 2.42-3.17 1.22-1.59-1.29-2.01-.34-.73-2.78.07-1.84-3.92-.17-.66-.85-2.7-1.27-2.05-.74-1.82.57-2.25-.21-3.76-.6-1.53.51.73 3.43.96 1.98-2.59 2.3 2.66 1.65 1.49 1.87.18 1.46-1.21 1.53-2.49 1.54-3.51 1.03 1.55 1.15 1.14 3.47-1.18 2.26-1.69.71-3.27-2.08-1.59-2.46-.68-2.2.36-1.9-2.39-.22-3.62-.12-2.33-.93-2.75-.6-1.57-1.04-2.19-.83-4.08-.95-3.07.43-1.03-1.66-.99-2.06-3.22-.36.12-2.55.85-1.73 2.38-2.47 2.69-1.78 2.55-.28.15-1.42 1.73-.93 3.14-.15 2.54-1.48.64-.96 2.12-1.85.65-1.1 2.27.66 3.05-.34 4.3-1.54.28-1.06-1.55-1.18 1.64-1.17-.14-1.09-2.94-1.09-3.24-.32-3.12-.17-.12 2.41-1.6 1.9-2.3 1.58-2.12-1.48.66-1.63-2.63-1.41-2.93 1.72.01-2.24z" /><path d="m149.47 137.38l-2.25-.42-5.87 1.34-1.53.87-1.84 1.64 3.83.58 3.39-.03-5.09.88 1.15.81 3.12.04 4.69-.17 4.24.51-2.87.38-3.09-.1-3.39.38-1.46.23 2.71 1.74 1.95-.25 2.99.6 1.19 1.04 3.9-.21 5.57-.33 4.12-.74 2.55-.14 3.77.6 3.97.34.74-.8-1.4-.85 3.61-.17.23-.97-3.96-1.04-3.68-1.08-.68-1.55-1.38-2.14-2.46-.89-2.18-.35-1.93.32 1.56 2.25-1.1.91-1.8-2.15-2-.72-2.48 1.12-3.06-1.11-4.88.66 1.1-1.03z" /><path d="m170.68 136.73l-1.67-.48-2.94.08-.74.31 3.42 1.54 1.93-1.45z" /><path d="m232.48 137.43l-3.79-1.21-5.02-.24-1.06.15-.09.79 2.42 1.16.63.14 2.4-.3 2.37.05 2.33.06-.19-.6z" /><path d="m210.04 137.31l1.62-1.42-5.67.58-2.25.9-1.69 1.96.7 2.22 3.11.01-2.29 1 1.82.77 3.56.33 4.64.65 7.99.49 3.98-.28 1.17-.65 1.73.74 1.94.13 2.32 1.36-1.4.56 4.44.75 3.36 1.06.85.75.6.97-2.84 2.14-.76 1.09.73.79-4.52.28-4.12.04-1.45 1.61 1.86.76 6.34-.35-.03-.64 3.2 1.07 3.27 1.12-.77.62 2.66 1.07 4.71 1.28 5.95.87-.35-.77-2.29-1.32-3.1-1.89 5.5 1.76 2.77.59.76-1.58-1.43-2.17-.91-.58-2.97-1.01-2.31-1.28.27-1.25 2.84-.28 3.45 2.11 2.7.94 3.86-2.55.68-1.54-3.45-.15-3.16-2.01-3.48-.48-5.17-1.44 4.03-1.02-2.08-2.05-1.91-.89-5.29-.86-2.29-1.4-4.08.49-.28-.95-3.02-1.05-4.87-1.11-2.08.87-4.34.64.33-1.44-3.77-2.27-5.56.9-2.03 1.77-1.73-1.36z" /><path d="m179.77 135.8l-2.59 1.06 2.41 1.44-4.48-.28-.04.71 5.45 1.69 1.52.84 2.12.18 3.59-.85.4-1.97-3.32-.95 2.05-1.05-.57-.64-3.92.28-2.62-.46z" /><path d="m195.49 138.15l2.61-.43 3.28-1.95-4.19-.53-4.57-.08-2.18.6-1.15.93-.03 1.09 1.37 1.93 2.5.08 2.36-1.64z" /><path d="m135.66 141.2l0-.96 2.72-1.54 5.38-1.54 2.76-.55-2.36-.93-2.13-.63-5.6-.12-3.14-.46-7.42.34 2.15 1.35-1.9 1.44-1.52 1.6-.94.93 5.06 1.16 1.16.97 5.78-1.06z" /><path d="m194.57 133.31l-.8-.7-1.91-.77-3.16.59-1.17.99 2.66.57 3.19.17 1.19-.85z" /><path d="m183.85 129.49l-.17.29-3.09-.13-3.3.75-2.36-.07.13 1.69 3.6-.16-.04 1.28 2.36.35 3.61-.23 1-1.63-.07-1.13-1.67-1.01z" /><path d="m162.54 130.62l-.74-1.04-2.27-.26-2.01.8 3.14 2.1-3.84-.16-3.89-1.3-6.18-.74-2.06.61-3 2.14 3.07.4 9.91-.26-4.55.97.28.71 3.33-.05 5.54-.95 7.43-.34 1.34-1.04-.39-1.08-2.3-.09-1.95.37-.86-.79z" /><path d="m192.22 128.66l-4.52-.14-.83.9 2.55.68 4.54.27 2.2.95.27 1.09.75 1.21 5.84.7 3.54.28 4.5-.04 6.3-.34 2.81.27 3.27-.48 1.37-.58-.49-.91-2.35-.82-3.57-.16-4.47.19-3.48.47-3.21-.18-2.96-.1-1.39-.52-2.52-.5.5-.82-1.89-.72-4.32 0-2.44-.7z" /><path d="m145.01 127.46l-3.01.32-3.37-.03-4.5 1.42-3.73 1.64 0 0 2.98.48 3.51-.34 4.08-.94 2.05-.11 1.69-.76.3-1.68z" /><path d="m194.07 127.73l.27-.25-1.55-.41-4.41-.03.58.61 4.11.14 1-.06z" /><path d="m158.2 127.34l.73-.65-3.09-.35-3.21.23-1.77.7 3.25.7 4.09-.63z" /><path d="m159.35 125.36l-2.85-.45-1.18-.1-2.25.66-.04.31 3.65.01 2.67-.43z" /><path d="m189.71 126.55l.59-.79-2.62-.76-1.28-.15-2.84-.08.17.9.94.83 1.79.51 3.25-.46z" /><path d="m180.42 125.97l-1.68-1.05-5.93-.8-4.31-.3.16.84 2.66.53-2.12.65 4.88.09 3.61.71 3.59.24-.86-.91z" /><path d="m209.04 123.04l-1.73-1.45-3.6-.42-3.7-.47-2.8-1.17-5.1.11.96.51-2.25.15-1.52.67-1.52.97 1.39 1 2.41.73 4.02-.02-1.74.58-.03.8 2.36.9 4.54.28 3.89-.16 4.05-1.65 3.02-.66-2.65-.7z" /><path d="m249.68 115.47l-4.75-.14-4.75-.14-6.34.38-1.17-.24-6.7.09-3.94.24-2.9.35-1.66 1.19-2.37-.62-2.72-.11-3.23.82-4.31.35-2.56.07-3.26.42.48.75 2.56.64 1.83.89 3.88.75 7.68-.14 4.94.25-3.43.8-1.73-.24-6-.09.93 1.13 3.1.86-.62.76-3.89.52-1.78.85 3.56.42 2.99 1.41-5.86-.95-1.34.16 1.08 1.58-4.06.5.28 1.05 4.15.12 3.26.26 6.45-.34 5.73.61 5.87-1.32-.05-.54-3.75.09-.31-.5 3.07-.65 1.04-.86 3.39-.62 2.08-.76-1.81-1.08 1.52-.39-3.03-.27 6.64-.24 1.4-.45 4.53-.36 3.75-1.79 3.58-.63 5.18-1.33-4.78.01 1.98-.49 5.31-.44 5.36-.95.09-.59-4.01-.59-4.71-.29-5.87-.17z" /><path d="m421.05 193.55l-2.35-.67-.45.48-1.86-.02-.61.38-1-.2.07.55-1.6 1.24-.03.99 1.04-.34.76.96.94.47 1.06-.1 1.23-.75.38.35 1.05-.07.47-.89 1.63.28.96-.37.18-.9-1.12-.06-1-.4.34-.54-.09-.39z" /><path d="m249.39 413.35l-1.57-.26-2.02.91-.71 1.5-1.13 1.01-2.91-.79-3.08-1.47-1.81-.46 3.02 2.46 2.24 1.18 2.76 1.23 2.3.32 1.59.65 1.3.18 1.08.07 1.88-.68.73-.89-1.32-.06-2.35 0 0-4.9z" /><path d="m250.3 345.01l-1.18-2.46.69-2.12-1.15-.93-.3-1.58-1.07-1.5-.59 1.13-1.13.56.46 3.09.16 3.59-.69 4.91-.7 4.56-.4 4.24-1.28 2.68.26 2.71-.65 1.81.5 3.29-.93 3.27-1.51 3.51-1.35 3.54-.92.07.18 2.47.63 2.15-1.01 1.5-.75 4.06-.69 3.14 1.39.31.68-2.74 1.47.58-1.14 4.55-2.44-.77-.75 3.64-2.09 1.94 3.33.64-2.31 1.7-.94 2.11.28 3.74 1.11 1.46-.62 1.28.68 1.39 2.73 1.26 0 0 2.52 1.53 2.47.71.93-.05.35-2.05 1.98-.79 1.06-.54 1.95.01-2.03-.34-5.3-.29-.91-1.28.04-1.65-1.46.14-.77-.79-.2-2.33 1.69-.96.69-1.4-.25-1.11 1.16-1.87.8-2.9-.23-1.29.96-.42-.24-.83-1.02-.43.73-.93-.99-.83-.52-2.53.89-.45-.38-2.67.52-2.25.59-1.96 1.31-.79-.67-2.14 0-2.02 1.66-1.43-.05-1.84 1.25-2.14.01-2.02-.57-.4-1.02-3.79 1.36-2.25-.21-2.13.78-1.99 1.44-2.06 1.55-1.37-.66-.86.46-.7-.07-3.66 2.39-1.08.75-2.28-.26-.55-1.59.3-.85-3.03z" /><path d="m642.13 256.86l.51-1.27.97-.97-.5-.83-1.26-.06-2.39.62-1.09.99.07 1.89 1.8.68 1.89-1.05z" /><path d="m680.14 188.65l-.81-2.15-.77-1.35-.82-.94-1.36-2.22-1.92-.8-3.29-.66-2.91.06-2.73.4-1.81 1.09 1.21.52.02 1.21-1.22.71-1.98 2.32.02.97-3.09 1.39-2.63-.83-1.07 1.65-1.55 2.19.56.9 1.24-.28 2.17.35 1.69-.81 1.76.7 1.98 1.53-.24.78-1.73-.25-3.18.29-1.55.63-1.61 1.45-3.34.85-2.19 1.16-2.26-.44-1.23-.2-1.15 1.42.7.84.35.72-1.53.74-1.58 1.18-2.56.77-3.29.08-3.55.76-2.55 1.18-.97-.68-2.66 0-3.24-1.33-2.17-.33-2.92.31-4.53-.49-2.42.05-1.28-1.31-1-2.02-1.36-.24-2.65-1.37-2.96-.31-2.61-.37-.78-.95.84-2.57-1.51-1.77-3.13-.82-1.85-1.16-.57-1.53-.86.18-1.67 1.46-1.83.2-.1 2.2-1.22.99-4.36-.72-1.58 3.93-1.12.49-4.35.88 1.98 3.81-1.51.57.18 1.25-.31.5-3.46 1.19-.78.87-2.82.26-.83 1.4-2.32-.3-1.52.43-2.09 1.04.3.51-.62.51.55 2.03.72-.22 1.34.49-.08.86.33 1.25.39.63 1.62 1.02.65 1.69 3.61.89 2.36 2.57-.22 1.79.87 1.12-.07 1.12-1.58-.29.62 2.42 2.15 1.38 3.05 1.54.91-.53 1.76.68 2.22 1.43 1.23.31.74 1.06 1.7.43 1.78.96 2.49.51 2.56.21 1.33-.46.19 1.73 1.45-1.63 1.18-.56 1.57.51 1.16.05.96.59 1.77-.27 2-1.64 2.53-1.39 1.84.54 1.56-.93 1.03 1.37-.74.92 2.37.33 1.28-.17.74 1.3.95.52.07 1.68-.09 1.81-2.08 1.83-.26 2.6 2.31-.36.53 2.02 1.39.42-.64 1.83 1.63.82.95.41 1.61-.64.06.9.2.52 1.17.06-.33-2.51 1.14-.32 1.17-.54 1.75.01 2.14-.25 1.87-1.17 1.06.82 2 .4-.34 1.27 1.04.89 2.21.57 1.04-.36 2.94.7-.52.85.58 1.6 1.21-.13.75-2.32 2.32-.34 3.07-1.1 1.24-1.09.76.72 1.34-.98 2.48-.25 3.05-1.85 3.02-2.02 2.03-2.62 1.78-2.88 1.6-2.38 1.23-.19.56-1.74.33-1.79-1.29-.68-.52-1.17 1.38-.6.03-1.63-1.49-1.69-1.34-2.01-.86-2.16-2.36-1.2 1.13-1.54 2.13-1.1 1.03-1.18 3.1-.62-.35-1.15-1.42-.06-1.95-.85-2.46 1.57-1.74-.64-.07-.99-1.79-.36-1.16-1.48 1.12-1.03 2.15-.1 1.35-1.42 2.48-1.52 1.91-.78 1.16 1.15-1.74 1.48.46.85-1.16 1.02 2.36-.6 1.62-1.03 3.06-.64 1.79-1.4 2.42-1.18 1.51-1.56 1.04.69 1.9.08-.35-1.16 3.39-.94.88-1.23 1.41 1.29-.01-1.11 1.12-.06.32-2.6-.58-1.87 1.88-.78 2.66.39 1.48-2.14.75-2.4.85-.8 1.16-1.98-3.63.65-1.9.86-3.34 0-.88-2.06-2.6-1.56-3.82-.7z" /><path d="m393.73 286.89l.1-.87-.95-1.89.57-2.48.93-1.84-.58-3.12-1.51-.57-1.02.08-.77.55-.99-.46-.38-.72-.99-.48-.9.32-.52.28-.34-.94-.63.25-.38-.04-.4.64-1.7-.02-.61-.33-.28.2-.44.17-.17.74.5.91.54 1.76-.81.26-.21.31.17.42-.13.96-.35 0-.1.64.22 1.06-.48.97.64.6.7.15.93.92.06.87-.21.27-.16 1.81.42.06 2.17-.81 1.53-.63 2.6-.39 1.4-.02 1.53.43 1-.02z" /><path d="m428.69 292.87l2.77.09 1.78.58 1.74.51.16-1.18-.23-.64-.1-1-1-.7-.81-1.14-.19-.78-1.04-1.15.18-.65-.22-.93.17-1.7.53-.4 1.1-2.22.34-.6-.69-1.51-.31-.91-.95-.37-1.3-1.28.48-1.04 1 .22.62-.15 1.22.02-1.19-2 .08-1.45-.15-1.46-.87-1.4-.62.12-.07.7.87.87-.24.4-.12.73-1.84 1.7-.58 1.4-.31 1.14-.47.49-.44 1.53-1.18.91-.34 1.11-.49.88-.2.91-1.51.74-1.23-.9-.84.04-1.3 1.28-.64.02-1.04 2.12-.57 1.55-.02.61.56.31.45.99 1 .37.86 1.45-.33 1.73 3.58.05 1.04-.14 1.33.29 1.3-.28.27.12z" /><path d="m467.66 290.14l-1.93-1.45-.52-.94-1.22.46-1.02-.14-.58.37-.99-.27-1.33-1.81-.72.23-1.41-.05-1.65-.23-.82.19-.33.53-.71.07-.86-.47-2.45 1.1-1-.22-.3.17-.65 1.32-1.64-.42-1.61-.22-1.39-.81-1.81-.75-1.17.71-.86 1.11-.2 1.53-.13 1.33-.65 1.17-.43 1.37-.28 1.95.12 1.24-.36.76-.05.81-.26.7-1.44 1.06-1.01 1.13-.95 2.13.07 1.8-.55.71-1.28 1.07-1.29 1.37-.82-.39-.14-.62-1.2-.02-.75.84-.57-.22-.8.46-.36.56-.07.96-.56.23.31.68.91-.29.63.04.77-.27 6.48.03.54 1.64.63 1.31.5.71.84 1.15 1.45-.18.73-.31 1.21.31.33-.54.55-1.28 1.36-.09.12-.38 1.12-.01-.19.79 2.66-.02.04 1.39.45.84-.33 1.32.16 1.35.74.82-.12 2.61.54-.2.96.05 1.35-.33 1 .13.76.06.13.68 1.03-.05 1.39.2.73 1 1.76.3 1.34-.69.49 1.15 1.68.31.81.93.9 1.21 1.68.02-.18-2.37-.6.4-1.54-.85-.59-.39.27-2.21.39-2.6-.49-.96.63-1.4.59-.27 2.94-.37.87.23-1.19-2.77-1.27-1.23-.44-1.27.22-1.14-.4-2.02-.13-2.65-.56-.99.21-1.2.3-.17.08-1.31.63-.61.02-1.66.51-.83.12-1.77.46-1.02.84-1.14.84-.58.71-.78-.88-.3.13-2.57z" /><path d="m428.52 308.34l.57.22.75-.84 1.2.02.14.62.82.39 1.29-1.37 1.28-1.07.55-.71-.07-1.8.95-2.13 1.01-1.13 1.44-1.06.26-.7.05-.81.36-.76-.12-1.24.28-1.95.43-1.37.65-1.17.13-1.33-1.41-.12-1.48-.37-1.31 1.17-1.15 2.04-.16 1.18-1.74-.51-1.78-.58-2.77-.09-.16.96.62 1.13 1.63-.18.55.44-.95 2.54 1.04 1.3.24 1.71-.28 1.46-.67 1.04-1.94-.1-1.17-1.05-.18.97-1.48.27-.75.55.83 1.46-1.68 1.21 1.81 2.32.88-.95.67-.37.82.76z" /><path d="m234.6 298.18l.58-.21 1.46 1.04.7 1.04 1.02.56 1.29 2.3 1.64.28 1.2-.58.8.38 1.31-.19 1.68 1.03-1.41 2.23.65.05 1.1 1.17.99-6.02.05-.95-.34-1.26-.98-.8.01-1.59 1.24-.36.44.22.07-.84-1.28-.22-.03-1.38 4.28.05.72-.76.61.7.43 1.3.41-.28-.67-2.18-.58-.77-.8-.48 1.12-1.1-.08-.49-.62-.65-.44-1.46.17-1.57.49-.74.39-1.18-.77-.38-1.25.25-1.58-.12-.89.24-1.55-1.89-1.27-.28-2.82.21-.53-.76-.54-.19-.07-.45.26-.82-.18-.88-.48-.48-.28-1.01-1.13-.15.6-1.28.27-1.57.64-.81.85-.63.56-1.1 1.41-.37.42-.74-.57-.57-.78-.14-1.06 1.06-.86.49-1.72 1.11-1.72-.19-.18.46-1.38.04-1.26 1.02-.4 1.86-.02.72-.91.24-1.64 1.53-1.14-.07-.26.32.51 1.29-.42.65-.71-.15-.28 1.06.89 1.17.35 1.86-.47.57.49 2.01-.41 1.28.81.52-.84 1.15-.93 1.38-1.09.14-.51.8.1 1.1-.82.16.3.68 2.19 1.26.41-.04.54.95 1.86.3.62-.35 1.08.73.94.52z" /><path d="m217.94 279.8l.11-.44.18-.44-.08-.4.33-.26-.46-.33-.01-.88.85-.2-1.03-.93-.85-.89-.56-1.19-.52.47-.65-.15-.36-.45-.7-.19-.5.29-1.45-.58-.33.28-.5.43.62.31-.3.69-.01.66.3.45.71.21.5.61.44-.52-.14-.64.57.39.15.64.75.29.86.43.61.52.08.49-.25.38.45.46 1.19.49z" /><path d="m219.47 246.96l-.53.24-1.67.21-1.12.43-.99.49-.47.79-1.16.68.94.2 1.08-.24.32-.53.91-.03 1.57-1.14 2.16.11-.83.55.77.43 2.86.34.66.46 2.04.58 1.24-.08.52 1.25.76.63 1.42.15.89.57-1.47 1.22 3.14-.21 1.51.17 1.48-.11 1.46-.27.26-.52-1.66-.9-1.62-.09.16-.61-1.3-.45-.73.03-1.36-.99-1.86-1.36-.78-.52-2.05.25-.87-.8-2.06-.75-1.73-.02-1.89-.16z" /><path d="m471.83 220.73l.41.12.6-.19.42.02.16.14.04.22.11-.09.33.05.42-.17.23.08-.16-.41 1.49-.93-2 .65-1.58-.03-.32.53-.15.01z" /><path d="m474.55 220.91l-.23-.08-.42.17-.33-.05-.11.09-.04-.22-.16-.14-.42-.02-.6.19-.41-.12-1.04.08.51.88 1.07.29 2.25-.89-.07-.18z" /><path d="m437.22 191.2l.31-.48.97.04.75-.23.06-.2.42-.11.14-.5.51-.09.34-.4.65 0-1.01-1.08-1.63-.13-.21-.69-1.5-.25-.33.57-1.19-.45.13-.61-1.64-.19-1.04-.71-.98.23-.57-.25-.55.42-1.58.42-.81.55-1.6.48.38.65.24.93 1.12.52 1.24.95 1.63.7 1.23-.89.77-.17 1.71.67 1.03-.11 1.01.41z" /><path d="m421.77 177.19l-1.4.33-1.66-.29.1 1.25.5.82-1.49 1.08-.4-.48-1.84.12-.43.46.41.74-.54 2.01-.56.83-1.32 0 .37 2.3-.25 1.48.44.5-.12.96 1.03.57 3.16.41-1.11 1.5-.27 1.56 1.86.02.45-.48 2.35.67.67-.12 1.11.61.31-.58 1.93.1 1.57-.4 1.06.07.68.45.2-.37-.31-1.43.79-.28.78-1.01-1.24-.95-1.12-.52-.24-.93-.38-.65 1.6-.48.81-.55 1.58-.42.55-.42.57.25.98-.23-.9-1.4.18-.75-.55-1.18-.79-.78.61-.58-.52-1.12-1.03-.7-2.48-.87-1.23.6-2.23.42.02-.78-2.22-.51-.04-.85z" /><path d="m494.54 269.98l-.66.53-.94-.19-.77.97-.75 1.03.18.61.03.66 1.23.04.52-.15.49.39.81-1.18-.94-.6 1.25-.52.07-.91-.52-.68z" /><path d="m427.85 175.81l-.7-1.1-3.22.73.3.91 2.3 1.24 1.32-1.78z" /><path d="m423.95 173.95l-1.19-.33-.27-.62.65-.71.08-1.13-1.77.62-.77.6-1.93.14-.63.66-.37.59.07 2.24.89 1.22 1.66.29 1.4-.33-.59-1.07 1.58-1.58.65.24.54-.83z" /><path d="m242.63 254.58l.19 1.2-.16.84-.54.37.57.66-.05.6.11.63.57.35.87-1.51.73-.31.33.53.85-.13.39-.4.72.1 1.01-.09 1.05.47.81-.89-1.08-.8-.97-.08.07-.66-1.2.05-.4-.78-.58.05-1.3-.56-1.71-.01-.28.37z" /><path d="m426.33 246.34l-.96-1.38-1.73-1.02-1.03.41-.78-1.23-.08-.94-1.3-1.6.87-.91-.19-1.38.28-1.21-.16-1 .39-1.79-.12-1.02-.71-1.93-.94-3.94-1.35-.89-.02-.53-1.79-1.31-.2-1.65 1.35-1.22.52-1.81-.35-2.1.45-1.12-1.5.13-.89-.51-2.35.02-2.07.86-1.1-.32-3.63.17-3.72.4-2.11.66-1.39.91-2.37.38-2.11 1.2.83 1.41.13 1.33.75 2.32.58.46-.4.86-2.87.37-.99.81-1.27.19-.1 1.62-2.56.87-.84 1.1-1.8.59-2.19.34-3.54 1.61.01 2.6 0 .15-.04.43 8.26 5.31 7.4 4.79 7.4 4.79.52 1.02 1.37.63 1.02.36.02 1.39 2.43-.21 3.1-.98 6.35-4.31 7.52-4.18z" /><path d="m223.78 305.32l.26.91-.63.52.06.81.91-.18.89.24.92 1.11 1.24-.9.41-1.49 1.35-1.9 2.64-.87 2.39-2.3.68-1.42-.3-1.67-.94-.52-1.08-.73-.62.35-1.86-.3-.54-.95-.41.04-2.19-1.26-1.51.88-1.2.47.15.89-.83 1.42-.41 1.36-.76.34.37 1.99-.45.62 1.32.96.83-1.02.48.96-1.17 1.64z" /><path d="m476.64 233.11l-1.45-3.77-1.08.55-1.71-.13-1.76-.51-.5.71-.6-1.09-1.56-.27-1.94.18-.9.63-1.69.69-1.02-.34-2.18-.65-2.11-.58-2.92.04-.79 1.05.34.94-.57 1.35.66 1.77 0 7.81 0 8.08 8.82 0 8.52 0 8.7 0-.38-.45-2.56-1.97-.07-1.43.44-.38-1.97-2.43-.71-1.24-.81-1.19-1.66-3.42-1.35-2.21-.9-2.31.22-.2 1.57 3.14.99.98.73.71.51-.38.6-1.14.47-1.66.62-.88z" /><path d="m492.94 270.32l.94.19.66-.53-1.08-.66-.69-.76-1.18-1.26-1.22-1.25-3-2.08-1.2-1.07-.61-2.01-1.27-2.54-1.11 1.25-1.62.36-.69.67-.22 1.46-.94 3.23.23.88 2.56.46.68-1.64 1.33.99 1.29-.51.53.46 1.51.02 1.91.88.56.76.98.71.9 1.28.75.71z" /><path d="m380.17 205.94l.8-.56.9-.32.55 1.08 1.29-.01.38-.27 1.28.07.61 1.11-1.01.59-.03 1.71-.36.32-.09 1.04-.95.18.88 1.32-.6 1.44.75.65-.3.6-.81.82.18.73 2.05.34.62 1.26.82.74 1.07.18.84-.83 1.37-.77 2.09.04 2.79-.03 1.55-1.69 1.66-.44.47-1.43 1.27-.97-.85-1.26.84-1.78 1.35-1.22.2-.74 2.81-.46 2.08-1.46-.12-1.28-2.54.28-2.47-.99-.8.48-4.04-1-.87-.85-3.55-.08-1.82.12-2.34-.38-2.94.02-2.69-.4-3.1 1.59.89.95-.11 1.56z" /><path d="m453.35 171.02l1.87-.39.96.27 1.89.82 1.81 0 .94-.7-.65-2.04 1.56-1.27-.33-.38-2.26.06-2.38-.36-2.77.32-2.77.61.19 1.26 1.39.78.81-.27-.26 1.29z" /><path d="m483.18 265.02l-.68 1.64-2.56-.46-.35 1.88-.89 2.16-1.32 1.09-.94 1.68-.22.89-1.04.62-.65 2.29.03 1.98-.33.67-1.17.05-.74 1.25 1.34.16 1.12 1.07.38.88 1 .5 1.3 2.39 1.14.37 0 1.23.75.72 1.53 0 2.77 1.87.7.02.51-.06.49.25 1.46.18.65-.92 2-.92.89.74 1.5.01.6-.7 1.41-.04 1.95-1.54 2.86-.1 6.2-6.59-1.84.02-7.18-2.61-.84-.78-.81-1.06-.81-1.21.48-.77-.49-.39-.52.15-1.23-.04-.03-.66-.18-.61.75-1.03.77-.97-.75-.71-.9-1.28-.98-.71-.56-.76-1.91-.88-1.51-.02-.53-.46-1.29.51-1.33-.99z" /><path d="m462.74 146.29l.93-1.54-2.81-.88-3.41.75-1.08 1.61-2.09.97-2.35-.53-2.87.11-2.44-1.16-1.31.58 2.92 1.07 3.43 1.49.05 3.38.74.86 3.06 1.03.22.93-1.46.46-5.02 2.38-1.99 1.38-1.05 1.28 1.07 1.98-.49 2.16 2.13.72 1.27 1.2 3.57-.47 3.86-.8 3.98-.18 4.7-2.8 2.03-1.27.83-1.11-3.25-1.51.9-1.43-1.98-1.63 1.48-1.88-2.55-2.5 2.02-1.65-3.36-1.47.32-1.53z" /><path d="m791.43 335.9l-.54.36-1-.27-.85.75.21.97 1.21.27 1.36-.3.37-1.15-.76-.63z" /><path d="m793.6 334.71l1.4-.54 0-1.07-1.29.69-.69.12-1.1.45.28.82 1.4-.47z" /><path d="m5.18 334.06l.27-1.06-.45.1 0 1.07.18-.11z" /><path d="m265.7 411.63l1.1.98 1.86-.98.99.77 2.96-.66.66-.77-1.75-.99-1.32.88-1.87-.55-2.63 1.32z" /><path d="m420.98 205.34l-.37-1.88-1.42.84-.44.82.51 1.47.99.45.73-1.7z" /><path d="m407.87 187.29l-1.02-.88-1.02-.04-.31-.77-1.92.45-.66 1.79-5.11 1.72-2.07-.95.69 2.49-3.68-.57-2.85.48.22 1.6 3.36.84 1.62 1.12 2.26 2.3-.42 4.37-1.13 1.32.87.85 4.04 1 .8-.48 2.47.99 2.54-.28.25-1.32 3.2-.71 4.33.59 1.99-1.24.25-.95-1.19-.28-.57-1.7.76-.67-.64-.82.09-.62-.76-.96-1.04.34.03-.99 1.6-1.24-.07-.55 1 .2.61-.38.27-1.56 1.11-1.5-3.16-.41-1.03-.57-.64.05-.49-.19-1.92-1-1.12.17-1.54-1.04z" /><path d="m424.34 306.58l1.68-1.21-.83-1.46.75-.55 1.48-.27.18-.97 1.17 1.05 1.94.1.67-1.04.28-1.46-.24-1.71-1.04-1.3.95-2.54-.55-.44-1.63.18-.62-1.13.16-.96-.27-.12-1.3.28-1.33-.29-1.04.14.01 2.64-3.19-.02-.74.13-.44 1.63-.53 1.59-.48.7-.07.73 1.33 2.27 1.45 1.81 2.25 2.22z" /><path d="m387.58 178.13l-2.36-1.36-1.84.09.46 1.18-.46 1.17 1.36-.03 1.66.46 1.18-1.51z" /><path d="m393.41 169.17l-2.65.19-1.75-.18-1.71 1.78-.8 2.27 1.11 1.12.13 2.12 1.18-1.04.72.6-.79.99.52.59 2.66.39.04.03 1.47 1.35-.33 1.27 0 0-3.26-.2-.42 1.44 1.2 1.18-2.29.68.62.88 3.43.36.02 0-1.97.48-3.22 2.3 1.17.44 1.54-.84 2.03.25 1.45-1.03 1.03.44 3.73-.61 2.94.02 1.97-1.15-.87-1.13 1.11-.65.27-1.4-2.66-.42-.62-.86-1.35-2.5-1.51-.36-1.95-2.59-.18-.23-2.26-.14 1.97-1.96.57-1.79-2.4-.01-2.24.3 2.35-2.38z" /><path d="m491.19 206.7l2.34-.11 2.11 1.08 3.05-.34.54-.36 1.63.63 1.19.13.29-.26-1.08-1.18.57-.31-1.38-.5-.67-.9-2.04-.46-1.34.34-.38-.41-2.99-1.05-3.23-.35-1.85-.38-.27.26.8.67 1.22.25 1.27.81.55 1.5-.33.94z" /><path d="m402.33 284.83l-.49-.77-.59-1.39-.17-1.09.48-1.98-.55-.8-.21-1.73.01-1.59-.92-1.13.16-.68-1.01-.18-.71.35-.97-.16-3.81.11-.05 1.24.3 1.66.58 3.12-.93 1.84-.57 2.48.95 1.89-.1.87 1.96.62 1.98-.64 1.22-.75 3.44-1.29z" /><path d="m381.48 280.98l.35 0 .13-.96-.17-.42.21-.31.81-.26-.54-1.76-.5-.91.17-.74.44-.17-.67-.64.11-.65-.27-.25-.47.21.09-.71.45-.57-.9-.92-.26-.6-.49-.48-.44-.06-.53.31-.71.29-.6.47-.94-.17-.61-.56-.36-.07-.57.29-.35 0-.13-.8-.31.12-1.2-.17-.16.24-.49.05-1.58-.53-1.05-.02-.05.74-.24.23.19.73-.34.29-.49 0-.57.37-.67-.04-.97 1.07.64.36.32.48.25.97.54.44.57.28.85.86.96 1.3 1.17-.97.26-.61.37-.47.61-.05.51-.41 1.75 0 .61.78.48.93-.07.64.35.57-.02.8.6-.12.47-.05.57-.25.92 1.35-.15.88.43.47.62.01.45-.89.62.06z" /><path d="m363.04 268.99l2 .04.53-.31.39-.01.81-.51.94.46.96.04.95-.49-.45-.64-.72.37-.68-.01-.87-.54-.69.04-.5.52-2.39.06-.28.98z" /><path d="m366.8 273.62l.97-1.07.67.04.57-.37.49 0 .34-.29-.19-.73.24-.23.05-.74-4.06-.1-.59.25-.73-.07-1.16.36.14.47.67.46-.01.34.5.62.93.14 1.17.92z" /><path d="m420.83 295.63l.74-.13 3.19.02-.01-2.64-3.58-.05-.75 2.47.41.33z" /><path d="m452.01 219.49l-.41.94 2.68.42-.02.37 3.16-.19.27-.65-1.19.26.05-.38-1.63-.15-1.71.12-1.2-.74z" /><path d="m458.38 206.64l-1.07-.58-.02 1.09-2 .21-1.54-.77-1.76.6-1.62-.06-.42.07-.36.39-1.19-.05-.84.48-1.43.2-.05.57-.71.32-.13.72-1.02 1.06.15.63 1.12 1.25.86 1.01.38 1.46.82 1.75 1.8.96 1.46-.03-.83-1.94 1.39-.23-.65-1.12 2.03.58-.03-1.24-1.08-.63-1.23-1.01.83-.49-1.1-1.02-.49-1.32.41-.48 1.16 1.13 1.23 0 1.11-.36-1.52-1.23 2.66-.57 1.14.21 1.34.06.52-.25.68-1.37z" /><path d="m297.38 116.52l-.3.94 5.22 1.19-4.56-.72-3.08-.17-5.24-.82-5.82 1.21-2.39-.69-6.75.02-6.75.35-5.19.57.91.99-3.19.24-7.6 1.53-1.91.87 5.92.79-.85.8-8.04 1.05-8.3 1.06-.31.85 4.95.9 9.39.57-4.42.11-5.76.69 3.81 1.38 2.55.7 5.36-.16 5.86-.09 4.66.16 5.89 1.29-.03.92 2.8.85 2.64 2.32 1.74 1.52 1.33.82-2.45 2.04 1.84.55 2.18-.31 1.96.75 3.78 1.39-4.48-.58-2.04.03-.86 1.17.15 1.49 2.69.72 1.97-.32 1.2-.32 2.51-.78-.46 1.71-.87.92-3.3.82-2.17 2.56 1.46.78-.79 1.61 3.04 2.03.3 1.97 1.11 1.43 3.81 2.73 1.46 2.14 2.13 1.2 4.39.02 3.24 1.79 3.09-.14 1.12-2.14.99-1.81-.88-1.72 3.57-1.75 1.11-1.44.03-1.54 1.88-1.36 3.16-.51 2.92-.54 1.52-.09 4.72-1.54 3.05-2.32 2.27-.84 2.42-.01 6.42-.76 5.96-1.73 5.89-1.91-3.03-.12-5.78-.09 2.55-1.16-.75-1.49 2.71 1.26 1.69.85 3.91-.42-.83-1.77-2.87-1.34-2.97-.55 1.13-.59 4.34.91-.02-.98-2.75-1.48 3.05-.01 3.1-.34.72-.77-2.55-.89 4.88-.16-2.85-1.89 2.35-.2-.51-1.87-4.05-1.16 3.6-.69 3.43-.1-2.63-1.43-.07-2.44 1.76-1.42 2.57-1.6-5.08-.11 7.01-.38 1.24-.5 8.95-1.56-1.23-.94-6.58-.43-10.66.85-5.58.82 2.4-1.28-1.82-.78-4.26.67-6.61-.76-7.77.24-1.1-.39 11.81-.21 8.39-.1 4.06-.84-13.73-1.74-17.53-.28-7.75.21-2.8.81-7.7-.1-7.37 1.31z" /><path d="m202.29 267.7l.07-.32.75-.55.41-.24-.11-.26.51-.14.46-.55-.18-.44.15-.42 1.05-.61 1-.84-.65-.28-.19.33-.71-.4-.66 0 .17-2.47.02-1.74-2.03-.03-2.05.01 0 1.23-.99.01.82.73.81.51.24.47.36.13-.06.75-2.82.01-1.05 1.79.31.41-.25.51-.06.64 1.18.91 1.01.43 1.36.04 1.13.38z" /><path d="m284.67 292.35l.67-1.62 1.3-2.01-.36-.89-2.33-1.86-1.61-.52-.75-.24-1.14 1.89.17 1.5.85 1.3-.37.94-.2 1-.55.93.96.45.68-.59.49.09.3.62 1.05-.16.84-.83z" /><path d="m268.86 279.48l-1.73 1.29-.2.8.75.82-.54.41-1.35.35.04 1.01-.59.61 1.48 1.66 1.14-.09.52.5-.29.97.75.33.51 1.02-.61.77-.35 1.87.56 1.11.16 1.01 1.35 1.03 1.08.11.24-.43.69-.09 1-.39.71-.58 1.21.19.54-.08-1.34-1.91-.29-1.24-.7 0-.98-1.6.41-1.13-.12-.52 1.33-.57.35-1.97-.86-.77-1.18-1.07-.83-.05-.06-1.13-1.36-1.43-1.44-.81z" /><path d="m208.39 269.35l.68-.09.28-.5.32-.02-.05-1.08.52-.05.45.01.48-.58.64.44.23-.27.4-.26.77-.6.04-.46.21.02.28-.52.23-.07.37.34.44.1.49-.28.55 0 .76-.29.31-.3.75.05-.58-.61-.8-.33-.63-.49-.67-.41-.35-.05-1-.31-.44.19-.57.05-.53-.14-.7-.12-.25.25-.71.24-1.01.06-1.02-.2-.34.11-.21-.18-.63.03-.48.39-.22-.09-1 .84-1.05.61-.15.42.18.44-.46.55.65.19.47.43.66.36.08.29.97-.26.45.16.3.23-.16.88.67.19.38.69z" /><path d="m441.32 197.1l-.82.33-1.81-.42-1.64-.94-.7-.27-1.75.58-.21.88-.76.23.01.61-.87-.04-.74-.36-.4.37-1.53-.07-.08.03-.05.76.65.74.67-.95 1.41.35.04.74 1 .92-.44.17 1.84 1.61 2.01.65 1.27.79 2.07.82.24-.38-1.94-.83-.83-.92-.84-.48-1.01-.82-.47-.68-1.08-1.03.46-.91.79.51.48-.46 1.02-.05 1.89.37 1.51-.03 1 .48.84-.82-.7-.63-.53-.85z" /><path d="m239.39 254.14l-.5.61 1.39.34-.02.84 1.01.95-.8.49-1.65-.18-2.02-.3-.19.7 1.17.69 1.03-.41 1.34.16 1.03-.16 1.46.38.05-.6-.57-.66.54-.37.16-.84-.19-1.2-1.9-.34-1.34-.1z" /><path d="m435.56 195.03l.36.02.43.75.7.27 1.64.94 1.81.42.82-.33 1.68-.58 1.37.1 1.76-.41 1.33-1.49 1.04-1.49 1.34-.46-.16-.59-1.21-.59-.47.22-2.35-.67-.72.14-.52.51-1.03.28-.23-.14-1.07.34-.87.06-.18.44-1.84.27-.81-.24-1.12-.56-.17.9-1.23 0 .42.48-.72 1.41z" /><path d="m664.9 320.32l.14-.6-.77-.66-1.16-.67-2.04.43 2.91 1.54.92-.04z" /><path d="m673.07 320.1l1.43-1.64-.04-.67-.22-.43-2.17.87-.95 1.34-.19.75.26.26 1.88-.48z" /><path d="m658.73 315.61l-.59.78-1.21.01-.75 1.27 1.18.01 1.52-.29 2.54-.44-.55-.93-1.35.18-.79-.59z" /><path d="m669.7 315.61l-1.96.8-1.46.17-1.38-.66-1.74.46.01.8 2.92.27 3.29-.62.32-1.22z" /><path d="m638.37 312.72l-.3-.78-.91-.17-1.77-.86-2.67-.13-1.5 2.1 2.01.16.38.95 4 .9.91-.28 1.61.22 2.55.84 2.05.39 2.28.17 1.98-.06 2.42.88 2.5-.84-2.69-1.3-3.29-.4-.8-1.42-4.07-1.06-.49.91-4.2-.22z" /><path d="m695.65 311.48l0-1.04-.5-.65-.46.75-.39.78.22 1.66 1.13-1.5z" /><path d="m679.24 305.44l-.54-.73-2.22.11.42.94 1.52.4.82-.72z" /><path d="m686.31 304.63l-2.41-.64-2.71.1-.52 1.2 1.52.08 1.23-.15 1.84.19 1.85.9-.8-1.68z" /><path d="m694.37 300.37l-.35-.81-3.52-.9-1.12.71-2.96.53.93 1.09 1.96.4.87 1.31 3.21 0 .18.59-1.56-.05-2.37.79 1.68 1.08.01.96.5.8.84-.19.65-1.07 3.29 2.03 1.81.18 4.25 1.86 1.06 1.84.57 2.39-1.38.61-.93 1.78 2.78-.06.54-.63 2.23.44 1.95 1.8-.04-7.15-.03-7.15-2.36-.42-1.63-.78-1.87-.77-1.95 0-2.52 1.33-1.84 2.33-2.27-1.32-.61-3.55z" /><path d="m674.83 294.73l-.38-.49-2.17 1.59-2.52.09-2.77-.3-1.71-.65-1.87 1.63-.46.91-1.1 3.3-.31 1.75-.91 1.43.68 1.51.92.01.34 2.12-.63 2.02.95.65 1.39-.32-.09-3.14-.19-2.56 1.47-.67-.17 2.14 1.59 1.29-.29.84.55.61 2.15-.85-1.06 1.8.86.77 1.17-.65.02-1.44-1.97-2.53.4-.75-2.08-2.82 1.93-.85.96-1.28.95.32.18-1.01-4.09.74-1.18 1-1.97-1.95.32-1.67 1.91-.31 3.66-.11 2.11.43 1.65-.42 1.76-2.18z" /><path d="m682.4 295.36l-.21-.9-1.29-.19-.16-1.2-.73.8-.44 1.75.65 2.81.89 1.39.61-.26-.9-1.16.33-1.34 1.13.22.12-1.92z" /><path d="m658.67 293.83l.38-1.01-1.61-2.07 1.25-1.98-1.91-.37-2.52-.01-.76 2.5-.84.76-1.13 3.06-1.79.46-2.08-.61-1.05.19-1.28 1.11-1.4-.16-1.41.45-1.5-1.24-.37-1.47-1.3 1.46-.26 2.03.31 1.92 1.05 1.88 1.09.61.34 2.94 1.81.26 1.44-.12.8 1.06 2.61-.79 1.09.7 1.57.13.86 1.34 2.5-.99.32.78.85-3.35.05-2.19 2.11-1.5-.09-1.99.73-1.5 2.6-.25-2.46-2.04z" /><path d="m632.21 310.69l.09-3.4.55-2.73-1.07-1.38-1.61-.2-.76-1.22-.38-1.53-.78-.06-1.26-.76.88-1.79-1.67-1.01-1.27-1.83-1.85-1.51-2.23-.03-2.08-2.36-1.21-.91-1.69-1.49-1.94-2.15-3.4-.42-1.41-.09.19 1.12 2.29 2.42 1.65 1.22 1.15 1.88 1.98 1.38.8 1.72.65 1.88 1.93 1.83 1.66 3.07 1.09 1.65 1.67 1.79.94 1.33 2.81 1.79 1.85 1.83 2.43-.04z" /><path d="m570.81 219.96l-2.12 1.84-2.45.33-3.32-.54-1.08.95.78 1.92.76 1.48 1.77 1.09-1.87 1.27.03 1.56-2.13 2.2-1.37 2.23-2.3 2.3-2.55-.17-2.41 2.3 1.43.99.25 1.69 1.23 1.11.44 1.89-4.83-.01-1.46 1.46 2.57 1.87.65.86-1.05.79 2.86 2.66 1.55.26 3.19-1.31.43 2.06-.01 2.65.66 2.81.91 4.25 1.99 3.02.38 1.37.55 2.74 1.16 2.11.77 1.04.84 2.21 1.02 3.08 2.08 2.05.88-.64.74-1.49 2-.62-.67-.72 1-1.68 1.13-.1.01-3.73.93-2.09-.11-1.82-.46-2.85.66-1.67 1.02-.12 1.98-.79 1.09-.54.01-1.01 2.18-1.43 1.65-1.39 2.46-2.58 3.16-1.48 1.17-1.29-.13-1.66 2.71-.45 1.49.03.32-.8-.35-1.81-.76-1.65.38-1.32-1.35-.59.48-.8 1.38-.82-1.59-1.16.78-1.49 1.73.95 1.05.11.2 1.52 2.08.3 2.04-.03 1.26.38-1.01 1.85-.98.13-.68 1.25 1.2 1.14.36-1.41.61 0 1.16 3.48 1.08-.52-.23-.94.49-.74.09-2.27 1.71.5.98-1.81.11-1.07 1.21-1.84-.06-1.26 2.84-1.52 1.57.4-.18-1.35.76-.4-.16-.83-2.37-.33.74-.92-1.03-1.37-1.56.93-1.84-.54-2.53 1.39-2 1.64-1.77.27.9.7-.16 1.35-1.79.07-1.85-.15-1.38.34-2-.83-.04-.44-.19-1.73-1.33.46-.17.95.28 1.39-.25.87-1.82.04-2.64-.52-1.7-.2-1.27-1.12-3-.28-2.87-1.24-2.06-1.07-2.13-.83.85-2.06 1.39-.99-3.05-1.54-2.15-1.38-.62-2.42 1.58.29.07-1.12-.87-1.12.22-1.79-2.36-2.57z" /><path d="m386.4 179.64l-1.66-.46-1.36.03.46-1.17-.46-1.18-1.66 1.03-2.98 1.72 1.15 2.23-1.78 2.29 3.1.33 3.89-1.3 1.66-1.96-.36-1.56z" /><path d="m518.33 216.21l-.21.52-3.43.58-3.12-.38-1.52-1.1-2.08-.46-.7-1.62-.54.11-1.37-1.15.75-1.08-.64-.65-.83.17-2.59 1.62-.79.06-1.51-.29-1.1-1.01-.35-.83-1.5.62.68 2.52-.43.68 1.2 1.76 1.42 2.61 1.44.66.17 1.28-1.11.76-.51 1.71 1.52 2.09 2.69 1.2 1.13 1.67-.36 1.59.7 0 .03 1.17 1.21 1.15.82-.85 1.39.72 1.18-.35 1.62 2.92 1.47 2.09 2.11.62 2.22 1.69 2.68.72 2.21-1.06 1.69-.39 1.05.39.94 2.69 2.47.29 2.39.5 4.13.66.83-2.55 3.16-1.13-.18-1.01-1.05-.36-.06-1.93-2.1-.96-.88-1.33-1.08-1.15 1.99-1.99-.18-1.42-1.67-.37-.17-1.39-.72-1.75.94-1.2-.95-.33.6-1.59.89-2.74-.19-1.84-1.63-.08-2.51-1.95-1.76-.24-2.42-1.11-1.56-.2-.97.41-1.46-.06-1.56 1.25-1.93.42z" /><path d="m499.67 218.89l-1.42-2.61-1.05.37-.77-.56-2.55-.28-.95.34-1.12 1.37-1.2.54.2 1.6-.82 2.65-4.86 2.29.88 2.67 2.65.59 3.27 1.54 6.18 4.41 4.08.18 1.61-2.11 1.48.18 1.3.11-1.21-1.15-.03-1.17-.7 0 .36-1.59-1.13-1.67-2.69-1.2-1.52-2.09.51-1.71 1.11-.76-.17-1.28-1.44-.66z" /><path d="m368.16 152.01l-3.64-.15-3.58 1.17-2.76-.63-3.33 1.2-3.42-1.49-3.33.33-1.48 1.43 4.6.51.1.64-3.89.43 4.78 1.07-2.16.97 6.12.69 2.89.33 1.89-.4 6.33-1.51 2.85-1.67-2.48-1.5.51-1.42z" /><path d="m478.39 226.07l-.05-.02.3-.33-.03-.9-.59.03-.2.38-.74 0-.06.02-.31.56-.45 1.65-.58 1.03.15.12-.64.73 1.45 3.77 1.09-3.51-.05-.86-1.03.3.09-.58.56-.3-.55-.24.46-1.47.79.31.39-.69z" /><path d="m434.06 213.95l-1.67.19-2.24.24-2.56-.2-.31 1.13 3.06 1.11 1.12.24 1.68.82.46-1.12-.33-.68.79-1.73z" /><path d="m420.21 207.41l-1.1.68-1.2-.11.5 1.26.09 2.64.83.59.89-.74 1 .14.31-2.9-1.32-1.56z" /><path d="m427.16 195.22l-.49-.77-2.17.38-.25.42-1.33-.31-.18.9-.96.37-1.63-.28-.47.89-1.05.07-.38-.35-1.23.75-1.06.1-.94-.47-.09.62.64.82-.76.67.57 1.7 1.19.28-.25.95.91-.16 1.27-1.02 1.01-.29 1.78.72 1.09.26.69 2.16 1.49 1.27 2.01 1.43 1.71.99 1.63.14.95.88 1.41.4.64.95.91.27.67 1.11.86 1.27-.48.47-.44 1.18-.01.67.91-.17 1.17-1.88.92-.14.26-1.14-1.58-.81.92-1.42 1.91.36 1.21 1.02.41-.78-.22-.41-1.89-1.15-1.61-.66-1.96-.79.61-.44-.53-.49-1.72.02-2.44-1.77-1.11-1.82-2.05-1.1-.72-1.12.27-.62-.13-1.09 1.79-.78 1.75.32-.53-.94.24-1.08-3.14-.56z" /><path d="m229.78 257.27l-.5-.08-.92.16-.27.5 1.26.8 1.22.35.67-.37 1.54-.04-.36-.6-1.17-.52-1.47-.2z" /><path d="m478 226.76l0 1.34-.32.64.05.86-1.09 3.51.07.31 2.44.35.95-.67.53-.79 1.67-.31.36-.73.73-.37-2.19-2.2 4.39-1.1.42-.33-.88-2.67-4.3 2.34-2.44-.87-.39.69z" /><path d="m695.46 222.91l-1.61-.48-.91.93-1.24-.26-1.22 1.31-.02 1.04 1.43.63.59-1.29 1.12-.51.9.71 1.24-1.33-.28-.75z" /><path d="m709.36 216.34l-.03-2.27 2.03-2.21.06-1.77-1.19-3.05-2.34.41-.92 1.38.37 2.47-1.38 2.68-1.24.85-3.22 2.2-1.47-1.05-2.29 3.9-2.35-.45-4.37.66-1.61 1.5-2.2 1.13-1.16 1.38-2.07.68.89 1.5 1.39.64-.54 1.98 1.06.85 1.42-.92 1.47-3.73-2.23-1.62 2.57-.04 2.6-1.03 3.81-.49.1 1.65 1.47.84 3.13-2.51 3.85-.13 2.81-1.03 1.14-1.55-.38-1.1.82-1.75z" /><path d="m715.8 200.91l-1.68-.74-2.58-2.29-.65 1.72-.64 3.03-2.34.12-1.09 1.69.3 2.18 2.44-.03 1.2-2.4 3.45 1.5 1.92-2.18 3.26-.6-.49-2.46-1.55.93-1.55-.47z" /><path d="m555.72 205.09l.49-.96 1.45-.31 3.61.76.34-1.3 1.25-.45 3.12.92.8-.24 3.64.06 3.25.23 1.1.79 1.36.32-.18-1.25 1.51-.57-1.98-3.81 4.35-.88 1.12-.49 1.58-3.93 4.36.72 1.22-.99.1-2.2 1.83-.2 1.67-1.46-1.17-1.35-2.82.3-.94-.93-1.53-.43-1.06-1.27-1.21-.39-3.15.56-3.03-1.26-1.17 1.15-4.9-5.58-2.8-1.69.8-.69-5.5 2.07-2.1.12.18-1.19-2.82-.75-2.29.53-.69-2.27-3.94-.47-1.98.91-5.49.81-1.07.54-8.21.76-1.01.75 1.59 1.5-2.11.57.41.6-2.1 1.07 3.55 1.51-.55 1.04-3.08-.1-.64.66-2.81-1.14-3.47.04-2.33.93-2.6-.89-4.84-1.52-3.43.06-4.53 2.39-.27 1.6-2.26-1.27-1.75 2.41.64.44-1.26 1.67 1.86 1.49 1.63-.07 1.4 1.47-.22 1.13 1.11.35 2.05-.46 2.54-.96 1.86.53 2.2-.1.39 1.36-.39 2.14-1.92-.33-1.87.36-.08 1.6-2.14-.21.08.72 1.21.55.99 1.97 2.54.75.42.76-.54.92.12.53.97-.73 2.49-.45 1.49.61 1.53 1.72 1.13-.1-.09-8.1 5.65-1.29.41.19 3.4 1.57 1.8.83 2.09 1.98 2.58-.32 3.76-.17 2.63 1.6-.17 2.2 1.07.02.45 1.79 2.79.07.6 1.04.82-.01.96-1.57 2.89-1.53 1.26-.41z" /><path d="m489.96 299.73l-.03-8 1.92-2.48-1.5-.01-.89-.74-2 .92-.65.92-1.46-.18-.49-.25-.51.06-.7-.02-2.77-1.87-1.53 0-.75-.72 0-1.23-1.14-.37-1.49 1.45-1.35 1.31 1.04 1.52.26 1.1.96 2.52-.79 1.6-1.08 1.46-.63.88.02 2.33.37.24 7.96 4.47.15 1.27 3.15 2.2.88-.73.43-1.46.7-.88.32-1.55.82-.16.54-.91 1.54-.88-1.3-1.81z" /><path d="m555.72 205.09l.65.22-1.84 1.42 1.62.83 1.56-.55 2.61 1.16-2.81 1.58-1.67-.22-.81.68-2.39-.37-.2 1.27 2.38-.17 2.71.71 4.15-.33.62-.51-.3-.51 2.09-1.04 1.52-.43 2.32.3.83-1.4 2.82-.26.78-.87 3.46-1.19.31-.5-1.36-.32-1.1-.79-3.25-.23-3.64-.06-.8.24-3.12-.92-1.25.45-.34 1.3-3.61-.76-1.45.31-.49.96z" /><path d="m627.12 274.51l1.84.32 1.9-.88 2.3-.16-.96-1.33 3.68-1.69.27-2.63-.5-1.46-1.95-.81-.99 1.51-1.81-.86-2.06-.31-2.84.42-1.4 1.82.52 2.65 1.11 2.27.89 1.14z" /><path d="m681.66 213.11l-.32.53-.93.15-1.55.1-.86.99-.98-.07-.14.2 1.51 1.87-1.63.37.97 2.29-.41 1.64.25 1.2 1.97-.19 1.76-.91 1.98-.42.83-1.21-.02-2.53-.54-1.42-1.89-2.59z" /><path d="m445.56 205.56l1.3-.34.49-.08-.07-.16.26-.27.24-.53-.31.01-.42-.4-.36-.11-.29-.35-.41-.13-.31-.31-.4.12-.3.73-.53.15-.41.5.47.59.53.22.14.8.28.01.1-.45z" /><path d="m505.28 232.06l-1.48-.18-1.61 2.11 1.96.21.54 1.05 1.56-.06-.71-1.66.2-.5-.46-.97z" /><path d="m630.9 266.52l1.81.86.99-1.51 1.95.81.39-2.2-.55-1.55-1.66-1.52-1.38-1.94-1.83-2.59-2.62-1.31.62-.79 1.41-.57-.85-1.92-2.7-.02-.99-1.99-1.28-1.73-1.14.32.33 2.51-1.17-.06-.2-.52-1.86 1.43-.47.81.95.68.12 1.32 1.49.1-.54 2.31.05 1.96 2.31-1.3.66.38 1.28-.06.45-.76 1.66.15 1.67 1.78.13 2.16 1.78 1.92-.1 1.85-.71.99z" /><path d="m478.61 224.82l.54-1.2 1.19-.83-.36-.86-.98-.11-.04.08-1.1 1.54-.78 1.79.74 0 .2-.38.59-.03z" /><path d="m383.08 288.27l.16-1.81.21-.27-.06-.87-.93-.92-.7-.15-.64-.6.48-.97-.22-1.06.1-.64-.62-.06-.45.89-.62-.01-.43-.47.15-.88-.92-1.35-.57.25-.47.05-1.02 1.02-.99 1.19-.12.64-.52.7 1.48 1.42 1.87 1.2 1.99 1.67 2.26 1.05.58-.02z" /><path d="m432.59 247.67l2.22-1.2 8.75 4.21 8.75 4.2.03-.92 2.52-.01 0-4.38 0-8.08 0-7.81-.66-1.77.57-1.35-.34-.94.79-1.05-.53-.73-2.18-.25-.7-.38-.82-.01-.75-.98-2.97-.45-1.51.3-1.58 1.03-.69 1.07.52 1.68-1.06 1.01-1.07.57-2.33-1.09-3.1-.92-1.97-.43-1.02-1.95-2.92-.98-1.83-.37-.92.19-2.58-.75-.12 1.68-1.07.63-.68.71-1.5.84.23.91-.19.93-1.07.51.71 1.93.12 1.02-.39 1.79.16 1-.28 1.21.19 1.38-.87.91 1.3 1.6.08.94.78 1.23 1.03-.41 1.73 1.02.96 1.38 3.47.94 1.24 1.21 1.55-.82z" /><path d="m579.48 281.34l-1.06-2.29-1.02-1.54-1.52-1.22-.99 3.56.39 3.15 1.04 1.75 1.91-.5.92-.63.33-2.28z" /><path d="m463.59 361.39l-.96-.68-1.02.45-1.19.86-1.17 1.39 1.64 1.68.79-.21.4-.71 1.23-.34.37-.71.67-1.07-.76-.66z" /><path d="m449.88 178.63l1.13.23.52.68 2.13.01 2.38-.82.51-1.24 1.8-.71-.21-.98-2.11-1.06-1.17-.14-.3-.46-2.16.22-3.68-.15-2.51.68.46 1.84 2.3.39.97.35-.23.6.17.56z" /><path d="m413.26 187.84l-.57.08-.24 1.24.49.19.64-.05.12-.96-.44-.5z" /><path d="m446.21 174.89l2.51-.68 3.68.15 2.16-.22.3.46 1.17.14 2.11 1.06 1.33-.37 2.36-.84-.7-1.3-.19-1.06-1.06-.51-1.81 0-1.89-.82-.96-.27-1.87.39-.42 1.69-1.76.04-1.74-1.64-2.07.75-1.08 1.38-.07 1.65z" /><path d="m388.6 219.38l-1.61-.01-.69 1.35-1.47 2.27-1.63.91-2.2 1-1.41 1.48-.29 1.16-.84 1.89.55 2.73-1.83 1.83-1.1.58-1.73 1.5-2.04.25-1.1.84-.04.03-1.4 2.24-1.46.8-.79 1.36-.05 1.17-.58 1.28-.74.35-1.22 1.4-.76 1.54.14.75-.71 1.14-.85.6-.1 1.02.04 0 4.94-.18.26-.79.9-.98.73-3.03 3.05-2.37 1.03-2.77.69-.16.71-1.71 1.85-.23.79.28 1 0 .7-.5 1.36-.07-.05-1.18 0 0 .33 0-.01-2.6 3.54-1.61 2.19-.34 1.8-.59.84-1.1 2.56-.87.1-1.62 1.27-.19.99-.81 2.87-.37.4-.86-.58-.46-.75-2.32-.13-1.33-.83-1.41-.96-.02-2.27-.49-2.08.15-1.33-.93z" /><path d="m458.41 192.03l.67.21.68.65.7.93 1.27 1.3.07.97-.24.93.4 1 .55-.23.38-.76.6-.7-.15-.39.46-.18.21.31 1.3.06.58-.16-.41-.22.15-.33-.76-.56-.32-.91-.8-.36.16-.75-.99-.59-.91-.08-1.61-.68-1.46.21-.53.33z" /><path d="m508.72 325.21l-.77-.94-.72.98-.04 1.32-1.21 1.52-.93-.26.29.94-.65 1.1-1.81 1.35-1.25 1.25-.96.03-.82.4-1.22.45-1.09.08-.3 1.39-.77 1.23.18 2.02.42 1.39.5 1.04-.19 1.39-1.05 1.67-.01.73-1.01.38-.39 1.58.2 1.58.77 1.75.15 1.94.6 1.16 1.74.79 1.27.56 1.91-.93 1.79-.52.99-2.55.84-3.05 1.36-4.16 1.08-3.02.86-2.56.14-1.86.61-.5.19-.93-.42-1.63.42-.65.74 1.29.39-.65.22-1.05-.57-1.03-.35-2.64-.55-1.45-.58-.93z" /><path d="m186.83 241.07l-.85.07-1.56-.48-1.71-.68-.62-1.03-.48-1.54-1.3-1.25-.75-1.29-1.11-1.5-1.54-.87-1.8.04-1.38 1.73-1.82-.66-1.14-.66-.54-1.21-.73-1.14-1.3-.97-1.12-.69-.8-.78-3.81 0 0 .91-1.74 0-4.37.01-5-1.54-3.32-1.07.21-.43-2.79.24-2.49.17.89 1.97 1.02 1.76.81 1.44.81 1.37 1.29.6 1.69 1.57-.08.99-.82.82-.9-.13-.16.17 1.29 1.27 1.35.53.56.58.29-.29 1.51.98 1.04.68.34 1.19-.08 1.61 1.13.56 1.58 1.06 1.43 1.25.58 1.33.39.01.92-.8.06-.4-.8-.98-.88-.99-1.06-.08-.12-1.15-.61-1.03-.65-.96-.73-2.04-1.38-1.12-.46-.78-.67-.56-.44-1.41-.39.03-.29-.76-.33-.15-.36-.52-1.63-1.51-.76-.91-.21-1.64-.36-1.06.35-.89 1.25.61.73-.1 1.59.87-.03.85.78 1.68 1.18 1.65.09.69 1.03 1.06 1.27 1.16 1.18.18.55 1.53 1.3 1.07 1.12.51-.34 1.35.4.54 1.89.9 1.07 1.36 2.2 1.72 1.94 2.18.73 1.11.2.87.74.99-.01.75-.51.57.23.63-.73.21.52 1.07 1.1 1.39 2.36 1.24.91 1 2.25.7 1.23.13.55.59 1.84 1.04 2.48 1.02 1.64.31 2.06 1.01 1.64.42 1.55.57 1.11-.21 1.76-.83 1.22-.16 1.8.58 1.13.71 2.48 2.36.06-.64.25-.51-.31-.41 1.05-1.79 2.82-.01.06-.75-.36-.13-.24-.47-.81-.51-.82-.73.99-.01 0-1.23 2.05-.01 2.03.03-.02-.33.27-.1.4.26.78-1.32.42-.03.46-.04.56.57.55-1.72.32-.95-.4-.38.52-1.33 1.18-1.31.08-1.06-.53-.46-1.33.18-1.94-.07-2.33.51-1.48.57-.38.64-.18 1.85-.52 1.28-1.4.89-1.38.38-1.64.39-1.68.23-1.92.61-.91-.92-2.33-.58-.86-1.08-.51-1.25-1.46-1.64-.43-1.7-.69-1.07-.38-1.2.22-1.07.16-2.94.38-1.58.85-1.93z" /><path d="m445.18 206l-.27.74.31.94.91.54 1.43-.2.84-.48 1.19.05.36-.39.42-.07-.16-1.45-1.1-.7-1.01.03-.75.13-.49.08-1.3.34-.1.45-.28-.01z" /><path d="m373.29 265.77l.1 1.36.44 1.26.82.62.18.85-.1.68.13.8.35 0 .57-.29.36.07.61.56.94.17.6-.47.71-.29.53-.31.44.06.49.48.26.6.9.92-.45.57-.09.71.47-.21.27.25-.11.65.67.64.28-.2.61.33 1.7.02.4-.64.38.04.63-.25.34.94.52-.28.9-.32-.14-1.28.59-.93-.05-.74 1.74-1.82.33-1.5.6-.54 1.06.3.92-.45.3-.56 1.7-.99.42-.68 2.05-.91 1.21-.32.55.42 1.4-.01 1.41-.08.81-.78 2.99-.19 1.95-.35.19-1.35 1.2-1.47-.01-5.05-2.43.21-.02-1.39-1.02-.36-1.37-.63-.52-1.02-7.4-4.79-7.4-4.79-3.36.04 1.06 9.47 1.06 9.47.38.27-.49 1.54-8.81.03-.33.49-.85-.15-1.23.44-1.53-.61-.7.05-.37 1.29-.74.4z" /><path d="m431.96 219.17l-.06-.08-.19-.15-.22-.05.01.24.18.11.21 0 .07-.07z" /><path d="m431.41 218.78l.02-.01-.04-.06-.09-.03-.18.03.03.04.13.07.13-.04z" /><path d="m618.44 253.55l1.26-.51.47-.81 1.86-1.43-.06-.9-1.61.64-.95-.41-1.63-.82.64-1.83-1.39-.42-.53-2.02-2.31.36.26-2.6 2.08-1.83.09-1.81-.07-1.68-.95-.52-.74-1.3-1.28.17.16.83-.76.4.18 1.35-1.57-.4-2.84 1.52.06 1.26-1.21 1.84-.11 1.07-.98 1.81-1.71-.5-.09 2.27-.49.74.23.94-1.08.52-.05 1.57-.77-.33.15 1.76 1.56 1.79 1.28.29-.27.79 1.72 2.53.46 2.05-.76 2.72 1.36.52 1.23.19 2.5-1.56 1.44-1.1.95 1.81.4 2.78.71 2.62.89 1.14-.17 2.39.73 1.3-.67 1.68.21 1.63 1.06-2.26 1.21-2.04-.86-2 .04-1.02-.26-1.23-1.46-1.74-.52-1.1.75-.41.81-1.91-.9-1.44-1.39-1.61-1.06-1.92.92-.4 1-2.37 1.55-.1 1.28-.95z" /><path d="m443.45 204.58l.59-.19.41-.5.18-.18-.83-.46-.72-.24-.32-.3-.59-.38-.41.2-.71.51-.32 1.21-.24.38.95.43.61.72.46.17-.15-.7.95-1.08.14.41z" /><path d="m592.57 189.67l.57 1.53 1.85 1.16 3.13.82 1.51 1.77-.84 2.57.78.95 2.61.37 2.96.31 2.65 1.37 1.36.24 1 2.02 1.28 1.31 2.42-.05 4.53.49 2.92-.31 2.17.33 3.24 1.33 2.66 0 .97.68 2.55-1.18 3.55-.76 3.29-.08 2.56-.77 1.58-1.18 1.53-.74-.35-.72-.7-.84 1.15-1.42 1.23.2 2.26.44 2.19-1.16 3.34-.85 1.61-1.45 1.55-.63 3.18-.29 1.73.25.24-.78-1.98-1.53-1.76-.7-1.69.81-2.17-.35-1.24.28-.56-.9 1.55-2.19 1.07-1.65-2.62.18-1.15-.73-1.32-.24-3.21 1.54-2.89.37-2.02.54-2.76-.36-2.04.03-1.33-1.12-2.15-1.06-2.2-.29-2.77.29-2.08.41-3.12-.93-.41-1.64-2.58-.57-2-.25-2.45-.91-2.28 2.27.89 1.3-2.13 1.52-3.17-.55-2.19-.08-1.47-1.02-2.29-.03-1.91-.68-3.33 1.03-4.19 1.89-2.31.39z" /><path d="m475.84 323.13l-.61 1.66.61 2.86.76-.04.79.71.92 1.59.19 2.82-.95.46-.67 1.52-1.43-1.35-.16-1.55.46-1.02-.13-.88-.87-.55-.6.2-1.26-1.05-6.66 1.8.21 1.57.14.81 1.83-.04 1.01.46.48.55 1.04.16 1.14.7.01 2.78-.43 1.52-.09 1.64.35.65-.25 1.29-.33.2-.58 1.58-2.31 2.49 1.05 3.09.57 1.56-.39 2.45.19.79.32.98.19.97 1.66.02.19-1.16-.56-.14-.19-.93.97-.81 2.63-1.19 1.81-.74.92-.78.33-.91-.52-.38.36-1.02.06-2.15-.39.11-.02-.66-.44-1.28-1.04-1.67.19-1.56.9-.51 1.53-1.56.85-.4 2.48-2.35 2.47-1.07 2.01-.83 1.39-1.36.86-1.53.65-1.56-.39-1.08-.08-3.43-.27-1.92.09-2.19-.36-.98-1.74 1.27-2.4.85-1.32-.04-.78.66-1.53.06-.57.28-2.64-.62-1.65.18z" /><path d="m373.29 265.77l.74-.4.37-1.29.7-.05 1.53.61 1.23-.44.85.15.33-.49 8.81-.03.49-1.54-.38-.27-1.06-9.47-1.06-9.47 3.36-.04-8.26-5.31 0 3.32-7.21-.11.07 5.61-2.05.2-.54 1.12.42 3.17-8.6-.01-.47.73 1.15.95.57 1.04-.22 1.1.27 1.09.24 2.17-.27 2.06-.62 1.09.19 1.18.75-.71 1.09.19 1.08-.47 1.22-.03 1.05.65 1.46.58 1.32 1.61 1.45 1.51z" /><path d="m475.84 323.13l-.61-2.99-.75-1.02-.44-.61-2.15-.41 1.03.98.56 1.86-.37.6-.44 1.78.42 1.81-.69.77-.67 2.04 1.16.57 1.26 1.05.6-.2.87.55.13.88-.46 1.02.16 1.55 1.43 1.35.67-1.52.95-.46-.19-2.82-.92-1.59-.79-.71-.76.04-.61-2.86.61-1.66z" /><path d="m621.8 284.23l-1.79-.96-.38.39.49.93-.24 1.6.79 1.19.3 1.82 1.27 1.47.26 1.12 2.59 1.74 2.08 1.62 1.55-.14.05-.74-.87-1.94-.77-.61-.16-1.3-.21-.75.23-1-.13-1.48-.92-1.47-1.29-1.32-.51-.21-.71.9-1.45.27-.18-1.13z" /><path d="m660.3 288.02l-.39-1.07 1.47-.11.16-.86-1.83-.66-1.45-.61-.1-.96-1.13-1.11-.88.01-1.11 1.71-1.69 1.53-.1 1.08-.13 1.4-1.05-.07-.46.75-1-1.14-1.07 1.39-1.58 1.74-2.63.47-.93.42-.45 1.85-1.69.41-1.61-.75.37 1.47 1.5 1.24 1.41-.45 1.4.16 1.28-1.11 1.05-.19 2.08.61 1.79-.46 1.13-3.06.84-.76.76-2.5 2.52.01 1.91.37 1.61-.75z" /><path d="m435.87 360.56l1.05-1.09.87.6.37.94.98.16 1.38.41 1.18-.16 1.96-1.12 0-8.1 0-6.41 2.16-.07.07-7.82 1.63-.07 3.38-.77.84.9 1.4-.86.67 0 1.24-.5-.02-.18-.87-.49-1.42-.13-1.8.5-4.03.89-5.31-.31-1.52-1.05-8.9.1-.33.15-1.31-.99-1.42-.07-1.31.38-1.06.41.13 1.69 1.79 2.14.48 1.38 1.15 2.63 1.13 1.81.86.91.28 1.19.05 2.63.73 3.38.54 1.59.49 2.13.86 1.61 1.63 1.66z" /><path d="m763.79 344.1l-.7-.61-.96-.75-1.23-.74-.95-.03.31.74 1.45 1.55 1.41 1.16 1.57.99 1.21.59.84-.53-1.15-1.01-1.8-1.36z" /><path d="m404.73 271.64l.73-.64.79-.01 1.67 1.27.16-1.96.63-.89.3-1.26.58-.47 2.35-.26 2.2.82.83.82 1.12.04 1.04-.54 2.65 1.14 1.12-.06 1.3-.93 1.28.07.64-.31 1.18.13 1.7.64 1.71-1.23.52.09 1.48 2.4.41-.05.07-.7.62-.12.22-1.04-1.41-.05.01-1.41-.92-.81.95-2.89 2.8-2.07.12-2.86.84-4.45.48-.94-.91-.76-.04-.69-.82-.58-.54-3.41-1.55.82-1.24-1.21-3.47-.94-7.52 4.18-6.35 4.31-3.1.98.01 5.05-1.2 1.47-.19 1.35-1.95.35-2.99.19-.81.78-1.41.08-.17 1.07.29 1 1.24 1.43.07 1.06 2.53.5-.05 1.5z" /><path d="m418.65 287.37l.57-1.55 1.04-2.12.64-.02 1.3-1.28.84-.04 1.23.9 1.51-.74.2-.91.49-.88.34-1.11 1.18-.91.44-1.53.47-.49.31-1.14.58-1.4 1.84-1.7.12-.73.24-.4-.87-.87-.41.05-1.48-2.4-.52-.09-1.71 1.23-1.7-.64-1.18-.13-.64.31-1.28-.07-1.3.93-1.12.06-2.65-1.14-1.04.54-1.12-.04-.83-.82-2.2-.82-2.35.26-.58.47-.3 1.26-.63.89-.16 1.96-.08.73.49 1.3-.43.88.23.59-1.06 1.36-.68.67-.41 1.39.05 1.39-.12 3.54 1.93 0 1.65-.03 1.56 1.45.72 1.59 1.17 1.37 1.76.05.84-.49.84.11 2.27-.79z" /><path d="m211.91 273.51l.33-.28 1.45.58.5-.29.7.19.36.45.65.15.52-.47-.33-.36-.11-.59.45-.56-.15-.58.21-.94.33-.22-.05-.99-.12-.56.07-.97.24-.88.5-.75-.22-.8.11-.49.19-.21-.75-.05-.31.3-.76.29-.55 0-.49.28-.44-.1-.37-.34-.23.07-.28.52-.21-.02-.04.46-.77.6-.4.26-.23.27-.64-.44-.48.58-.45-.01-.52.05.05 1.08-.32.02-.28.5-.68.09-.17.16-.36-.33-.24.34 1.1.99.92.69.48.74 1.03.88.76.69z" /><path d="m413.33 180.42l-3 .92-1.92 3.23-1.14.6 1.61.17 2.04-.45 1.38.96 1.21.51-.37-2.3 1.32 0 .56-.83.54-2.01-.41-.74-1.82-.06z" /><path d="m461.81 141.63l-3.94.44-4-.1-3.35 1.82-3.61-.12-4.81.96-6.03 2.76-3.68 1.65-5.27 4.24-4.02 3.05-4.33 2.27-5.79 1.84-2.03 1.41.7 5.07.78 2.36 3.04 1.11 2.92-.51 4.34-2.54 1.47 1.35.97-1.27 1.82-1.5.73-2.58-1.4-1.11-.14-2.92 1.43-2.05 2.17.03.77-.87-.8-.75 3.4-3.08 2.2-2.44 1.45-1.56 2.11.01.58-1.22 4.13.35.32-1.44 1.37-.09 1.31-.58 2.44 1.16 2.87-.11 2.35.53 2.09-.97 1.08-1.61 3.41-.75 2.81.88-.93 1.54 1.78-.21 3.73-.88-2.4-1.37 2.82-.59-6.86-1.61z" /><path d="m454.26 127l-3.17-.5-.87-.82-4.55.44 1.33.7-1.52.57 3.87.51 4.91-.9z" /><path d="m440.05 122.94l-2.76-.76-3.23.07-.83.75-3.13.03-1.2-.76-5.98.78 1.71 1.72 4.27 1.85 3.29.64-1.99.78 4.72 1.34 2.64-.09 1.05-1.82 1.93-.41 1.21-1.62 5.53-.86-7.23-1.64z" /><path d="m455.84 121.4l-5.54-.55-2.22.65-3.19-.52-6.78.61 2.4 1.01 3.15.04.39.6 6.48.37 6.36-.26 3.25-1.18-4.3-.77z" /><path d="m593.38 236.67l-2.56-.21-2.49-.51-1.78-.96-1.7-.43-.74-1.06-1.23-.31-2.22-1.43-1.76-.68-.91.53-1.39.99-.85 2.06 2.13.83 2.06 1.07 2.87 1.24 3 .28 1.27 1.12 1.7.2 2.64.52 1.82-.04.25-.87-.28-1.39.17-.95z" /><path d="m779.68 387.64l-.48-.93-1.54 1.01-.33 1.23-.83.55-.98 1.64-1.31 1.14-1.88 1.14-1.58.84-1.42.41-2.76 2.17-1.17 1.63.36.8 2.39.16 1.42.72 2.02.05 1.1-.63 1.72-.98 1.25-2.22.58-1.44 1.88-.82 1.69-.03-.8-1.06 1.12-.88 1.43-1.62.82-1.01 0-.93-.64-.92-1.56.89-.5-.91z" /><path d="m783.18 377.19l-.62-1.96-1.71-.57-1.2-1.21-.81.17.92 1.55 1.72 1.94 1.05.91-.06.39.89 1.47.1 1.42-.37 1.68-1.58.77-.06.8 2.36.87.72 1.21-1.27 1.81.92.31.37.58 1.7-.88 1.09-1.5.83-1.18.32-.41-.21-.94.59-.67 1.68.04.66-1.28.54-1.94-1.12-.26-1.25.84-1.48-.18-1.77-.71-.33-1.66-.99-.6-.04 1.5-1.59-2.31z" /><path d="m529.17 251.51l.92-.7.35-.62.8-1.3.01-.49-.79-.28-.59-.73-.99-1.26-1.3-.4-1.61-.29-1.23-.79-.98-1.5-1.12.01-.18 1.43.39.3-1 .43 0 .9-.64.91-.06.88 1.01 1.56-1.47 4.39-6.58 2.19 1.72 3.62.71 1.54 1.02-.13 1.47-.74 1.21.21 1.06-.61-.01-.89.86-.55 1.36.02.5-.47.22-1.07 1.37-.82 1.01.01.2-.27-.27-1.46.36-1.12.45-.52 1 .11.82-1.5z" /><path d="m523.75 241.02l.2-.91-.27-.19-.64.75.42.75.29-.4z" /><path d="m564.93 216.36l-1.28.24-1.11.41-2.52.26-2.36.46-1.28.95.52.93.25 1.09-1.09.93.09.84-.6.79-2.09-.07.86 1.45-1.4.56-.93 1.32.12 1.32-.85.62-.82-.21-1.67.29-.24.61-1.64 0-1.22 1.24-.08 1.87-2.85.91-1.53-.19-.44.48-1.31-.28-2.2.33-3.67-1.12 1.08 1.15.88 1.33 2.1.96.06 1.93 1.05.36.18 1.01-3.16 1.13-.83 2.55 3.09-.31 3.57-.04 4.04-.41 1.7 1.67.65 1.58 1.61.55 1.46-1.46 4.83.01-.44-1.89-1.23-1.11-.25-1.69-1.43-.99 2.41-2.3 2.55.17 2.3-2.3 1.37-2.23 2.13-2.2-.03-1.56 1.87-1.27-1.77-1.09-.76-1.48-.78-1.92 1.08-.95 3.32.54 2.45-.33 2.12-1.84-3.61-.89-.65-1.69-1.62-1.02z" /><path d="m229.09 281.99l.28-1.06.71.15.42-.65-.51-1.29.26-.32-.82-.61-.72-.66-.98-.38-1.22-.07.08-.22-1.21-.13-.75.66-1.33.44-.93.56-1.08.15-.61-.53-.2.17-.88-.1.04-.46-.78-.79-.85.2.01.88.46.33-.33.26.08.4-.18.44-.11.44.25.33.07-.48.94 0 .57.25.9.15.44.88.72.13.29-.37.38 1.31 1.02-.11.32-.33.6-.28-1.05-1.19.21-.46.48-.07.89-.55.44-.77.96-.14 1.1.61.41.73.55.15-.54.59.47 1.18.73.63z" /><path d="m247.29 336.42l1.38-2.36-.94-1.85.5-.74-.39-.81.86-1.1.04-1.86.11-1.55.47-.74-1.9-3.53-1.24.38-1-.26.15-3.33-1.8 1.29-1.94-.05-.83-1.17-1.45-.13.46-.94-1.22-1.34-.91-1.97.58-.41 0-.92 1.32-.64-.22-1.18.56-.77.16-1.02 2.51-1.49 1.8-.43.29-.33 1.98.11-1.1-1.17-.65-.05 1.41-2.23-1.68-1.03-1.31.19-.8-.38-1.2.58-1.64-.28-1.29-2.3-1.02-.56-.7-1.04-1.46-1.04-.58.21.3 1.67-.68 1.42-2.39 2.3-2.64.87-1.35 1.9-.41 1.49-1.24.9-.92-1.11-.89-.24-.91.18-.06-.81.63-.52-.26-.91-1.75 1.38-.68 1.54 1.06 2.09-.71.98 1.56.89 1.71 1.43.69 1.62.9 1 2.07 4.37 2.16 4.05 1.86 2.88-.36.63.91 1.81 1.69 1.35 3.94 2.4 4.35 2.21.19.9 2.2 1.26 1.13-.56.59-1.13z" /><path d="m677.33 279.38l-.16-.81-.18-1.1-1.78-1.04.13 1.69-1.55.06-.36.98-1.67.6-.77-.99-1.2.83-1.38.61-.86 1.85.36.64 1.62-1.22 1.04.08.69-.91 1.39 1.04-.67 1.05.61 1.58 2.59 1.28.62-1.03-.7-1.62 1.03-1.11.8 2.24.75-2.01-.13-1.23-.22-1.46z" /><path d="m672.07 275.29l.21-2.09-1.62 2.11.35-1.47-1.21.13-.24 1.36-.55.61-.45.59 1.35 1.52.69-.65.68-1.39.79-.72z" /><path d="m660.05 277.4l1.15-1.51 1.45-1.21-.39-1.78-1.15 2.17-1.32 1.52-1.58 1.36-1.08 1.53 2.92-2.08z" /><path d="m667.47 271.75l.34 1.04-.16 1.12.08 1.02 1.39-.66 1.02-.93.04-.91-1.4 0-1.31-.68z" /><path d="m675.41 271.15l-.61-.81-2.1-.05 1.34 1.67.03.83-1.3-.17.35 1.33.66.11.09 1.55 1.04-.5-.53-1.35-.05-.74 1.69.59-.61-2.46z" /><path d="m666.69 269.16l-.77-.79-1.88-.08 1.12 1.68.94 1.09.59-1.9z" /><path d="m666.23 257.24l-1.33 0-.71 1.98-.23 3.44-.88-.72.08 2.1.33.95 1.08 1.26.28-.79.66.51-.69.56-.11.91 1.1.48 1.99-.32 1.4 1.31.56-.81.81 1.16 1.71 1.07.23-1.01-.72-.52.21-1.2-2.74-1.22-.97.26-1.16-.24-.49-1.75.34-1.76 1.3-.73.57-1.83-.75-1.57.36-.91-.2-.56-.67.58-1.36-.63z" /><path d="m742.07 312.81l.31-.61-1.04-.75-1.06-1.39-.67-.5-.23-.65-.31.21.47 1.67.97 1.4.95.84.61-.22z" /><path d="m733.52 309.87l.73-1.34.05-1.22-.44-.36-1.32.04.24 1.29-1.22.79-.62.75-1.25.17-.22-1.17-.31.05-.33 1.06-1.2.17-1.97-.32-.18.68 1.25.61 1.8.64 1.17 0 1.12-.51 1.2-.54.35-.61 1.15-.18z" /><path d="m723 314.06l-.48-1.46 2.02-.24-.53-1.16-3.66-1.36-.33-1.29-1.23-1.11-1.51-1.12-4.06-1.26-3.8-1.51.03 7.15.04 7.15 2.27.1 1.23.36 1.72-.75-.28-1.62 1.34-.73 1.86-.62 2.87.96 1.14 1.92 1.24 1.21 1.71 1.4 2.21.33 1.89.24.54.57 1.45-.15.25-.64-2.34-.92.66-.41-1.69-.38.09-.97-1.26.07-1.43-2.32-1.96-1.44z" /><path d="m736.06 307.72l-.27-1.14-.83-.7-.88-.92-.92-.53-.75-.48-1.18-.62-.61.53 1.58.65 1.25.93 1 .72.51.85.41 1.29.69-.58z" /><path d="m432.95 185.69l1.04.71 1.64.19-.13.61 1.19.45.33-.57 1.5.25.21.69 1.63.13 1.01 1.08.13.13.9-.3 1.1.78 1.3-.47 1.04.23 1.58-.31 2.08.84.48.13-.56-.99 1.99-1.82 1.09-.26.23-.62-1.1-1.91-.04-.98-.68-1.01 1.32-.45.01-.88-.61-.83-.1-.97-.52-.68-1.13-.23-4.03.03-2.71-.25-2.11-.03-.17-.53-2.19-.37-2.76.74-3.43 1.01-1.5.65.52 1.12-.61.58.79.78.55 1.18-.18.75.9 1.4z" /><path d="m254.55 257.22l-1.8-.02-.31.32.13.94 1.28-.07 1.65.01.56-.56-.39-.43-1.12-.19z" /><path d="m686.68 204.81l-1.41-1.29-.88 1.23-3.39.94.35 1.16-1.9-.08-1.04-.69-1.51 1.56-2.42 1.18-1.79 1.4 1.04.59 1.28.24.14.36-.55 1.18.19.41-.52.25-.6.97.59.35.57.2.08.41.64-.18.27-.41 1.06.42.14-.2.98.07.86-.99 1.55-.1.93-.15.32-.53-1.25-.96-.87-.36.26-.24.07-.95.95-.59 1.46-.36.83-.65.39-.38 1.13-.49-.08-1.58.65-.74.96-.75.83.14-.31-.39z" /><path d="m380.17 205.94l.1.74.44.79.05.93-.46 1.32-.16.88-.87.8-.18 1.44.53.83.98.2.21 1.35-.34 1.72 1.13-.24 1.16.31.88-.57-.18-.73.81-.82.3-.6-.75-.65.6-1.44-.88-1.32.95-.18.09-1.04.36-.32.03-1.71 1.01-.59-.61-1.11-1.28-.07-.38.27-1.29.01-.55-1.08-.9.32-.8.56z" /><path d="m262.44 346.67l4.04 3.58 1.79.33 2.68 1.62 2.26.86.32.97-2.16 3.34 2.21.59 2.46.34 1.74-.35 1.99-1.68.36-1.94.43-1.27.3-1.3 0-1.2-.79-.4-.83.35-.81-.09-.26-.85-.2-2.01-.42-.65-1.48-.6-.89.43-2.32-.42.15-2.98-.65-1.22-.04-.67-2.04-1.13-2.04-.03-3.83.64-1.05 1.93-.05 1.18-.87 2.63z" /><path d="m511.5 243.52l.66.44.61-.16.48-1.29-.04-1.28-.66-.69-.6.23-.6 1.16.15 1.59z" /><path d="m449.84 192.77l-1.34.46-1.04 1.49-1.33 1.49-1.76.41 1.19.86.25.7 1.33.52.18.9 1.28.64.69-.49.54.27-.51.37.4.38.63.91.85-.16 1.69.34 3.22.11 1.09-.56 2.58-.51 1.6.8 1.29.23.61-2.65.67.21 1.06-.47-.05-.57-.99-.38-1.03.36-.98-.41-.4-1 .24-.93-.07-.97-1.27-1.3-.7-.93-.68-.65-.67-.21-.92 0-.55.51-1.62.21-.75.34-1.02-.54-1.41-.01-1.36-.24-.94.47z" /><path d="m715.23 186.48l-.91-2.21.06-2.16-.76-2.12-.57-1.45-.98.31.87 1.02-2.03 1.01-.19 3 1.29 2.15-.1 2.94-.51 1.66.25 2.36-.24 2.14.4 1.84 1.44-1.69 1.66 1.32.07-1.54-2.14-2.24 1.35-3.18 3.25.73-2.21-3.89z" /><path d="m449.88 178.63l-.17-.56.23-.6-.97-.35-2.3-.39-3.03.71-.5.97 2.71.25 4.03-.03z" /><path d="m15.94 151.73l.19-1.36-5.75-2.19-5.38-1.67 0 8.74 1.24-.93-.98-1.03 2.62-.52-.47.81 1.19.77 2.49-.29 2.23.36.49.96 2.92.64 1.67.76 2.06.07.88-.46.05-2.14 3.6-.23 2.17-.96-4.29-2.05-5.96-.33.51 1.6-1.48-.55z" /><path d="m795 142.41l0-1.5-2.8.91.39.7 2.41-.11z" /><path d="m7.87 142.27l2.26-.52.19-.3-3.18-.63-1.86 0-.28.09 0 1.5 2.87-.14z" /><path d="m715.13 137.18l-.26-.57-3.12-.84-2.75.2-2.08.87.39.12 4.49.24 3.33-.02z" /><path d="m730.77 133.08l-5.5-.58-4.09-.33-.53.71 4.08.87 3.51.19 2.53-.86z" /><path d="m718.38 132.03l-7.93-1.17-5.79-.09-2.9.41-1.18 1.51 4.35 1.42 3.64-.51 8.09.06 1.72-1.63z" /><path d="m526.26 142.65l-4.2-1.8-.45-1.82 3.44-2.11 3.27-2.14 6.82-2.09 6.7-1.05 7.78-1.09 1.47-.68-1.52-.86-4.27.28-3.76.81-7.31.41-7.24 1.41-4.91 1.16.59 1-5.25 1.93 2.02.26-4.35 1.88.07 1.19-2.24.47.32 1.19 3.97.59.58.97 7.17.29 1.3-.2z" /><path d="m634.74 128.93l-4.97-.34 2.99-.54-3.77-.71-5.18.9-2.09.94-.61.94-4.03-.03-4.93 1.16-1.79-.49-5.76.2-.73.6-5.8.3-4.27 1.09-2.52.06-2.54 1.44 1.79 1.14-4.76.29-5.28-.09-3.81.44.22 2.34 1.95 1.82-4.06-1.25-4.55.12-3.67.86 1 1.58-2.35-.4.86-2.11-1.15-1.22-1.09.05.5 1.56-3.92 1.48 2.85 1.79-1.75 2.2.52 1.22 2.4.18-1.02 1.45 1.28 1.25-1.9 1.04-.58 1.09-2.42.56-.87.79-2.51-.32 4.3-3.12.94-1.46-2.42-1.35.5-3-.71-1.54-1.36-.7 2.08-1.78-.46-1.22-5.81-.58-1.63.43-1.44 2-4.05 1.99.06.7 1.18 1.71-.73 1.04 2.65.22.06.46 2.23 1.16-1.46 1.15-7.96-2.51-3.03-.68-6.49-.67-1.14.73 2.3 1.27-2.49 1.45-2.5-1.32-3.26.91-4.11.06-1.58.75-2.72-.23 2.17-1.33-1.66-.11-7.66 1.89-4.58 1.04-.54 1.4-3.39.48-1.73-.75-.01-1.23 2.78-.27-1.26-1.23-6.14-.7 1.62 1.36-1.08 1.31 1.83 1.31-1.27 1.51-2.05-.77-2.03-.12-5.11 2.15 1.47 1.6-1.84.54-5.31-1.37-1.4.83 1.33.95-.29 1.06-1.71-.57-2.83-.67-.14-2.24-.14-1.02-3.58-1.61 1.61-.28 9.8 1.67 3.58-.58 2.44-1.16-.15-1.46-1.68-1.04-8.29-2.48-6.01-.52-3.61-1.33-2.26.76-3.73.88-1.78.21-.32 1.53 3.36 1.47-2.02 1.65 2.55 2.5-1.48 1.88 1.98 1.63-.9 1.43 3.25 1.51-.83 1.11-2.03 1.27-4.7 2.8 2.3 1.05-2.5 1.21.33.38-1.56 1.27.65 2.04-.94.7 1.06.51.19 1.06.7 1.3 2.31.55.31.54 1.16-.26 2.14.52.22 1.03-.47.59 1.37 1.44.89.4-.13.4 1.48.38.63.59-.85.48-1.77-.08-.42.21.51.73.54 1.4.82.09.56-.5.66.11 2.28-.21 1.4 1.24-.55.45.18.68 1.75.1.78.95-.04.44 2.78.77 1.69-.35 1.35 1.03 1.28-.03 3.24.72.03.64-.9 1.15.49 1.21-.35.73-2.12.16-1.13.62-.07.97 1.97-.35.06.48-3.24.89 1.23.87-1.82 1.84-1.6.35 1.9 1.29 2.5.83 2.8 1.85.27-.26 1.85.38 3.23.35 2.99 1.05.38.41 1.34-.34 2.04.46.67.9 1.38.5.62.08 1.51 1.33.97.15.38-.56 1.31-.88-2.4-2.59.22-1.47-2-2.09 2.18-2.26 2.13-.36 1-1.31-1.11-.35.22-1.13-1.4-1.47-1.63.07-1.86-1.49 1.26-1.67-.64-.44 1.75-2.41 2.26 1.27.27-1.6 4.53-2.39 3.43-.06 4.84 1.52 2.6.89 2.33-.93 3.48-.04 2.8 1.14.64-.66 3.08.1.55-1.04-3.55-1.51 2.1-1.07-.41-.6 2.11-.57-1.59-1.5 1.01-.75 8.21-.76 1.07-.54 5.49-.81 1.98-.91 3.94.47.69 2.27 2.29-.53 2.82.75-.18 1.19 2.1-.12 5.5-2.07-.8.69 2.8 1.69 4.9 5.58 1.17-1.15 3.03 1.26 3.15-.56 1.21.39 1.06 1.27 1.53.43.94.93 2.82-.3 1.17 1.35.86-.18 2.31-.39 4.19-1.89 3.33-1.03 1.91.68 2.29.03 1.47 1.02 2.19.08 3.17.55 2.13-1.52-.89-1.3 2.28-2.27 2.45.91 2 .25 2.58.57.41 1.64 3.12.93 2.08-.41 2.77-.29 2.2.29 2.15 1.06 1.33 1.12 2.04-.03 2.76.36 2.02-.54 2.89-.37 3.21-1.54 1.32.24 1.15.73 2.62-.18 2.63.83 3.09-1.39-.02-.97 1.98-2.32 1.22-.71-.02-1.21-1.21-.52 1.81-1.09 2.73-.4 2.91-.06 3.29.66 1.92.8 1.36 2.22.82.94.77 1.35.81 2.15 3.82.7 2.6 1.56.88 2.06 3.34 0 1.9-.86 3.63-.65-1.16 1.98-.85.8-.75 2.4-1.48 2.14-2.66-.39-1.88.78.58 1.87-.32 2.6-1.12.06.01 1.11.31.39.34-.73 2.95-1.61 1.38 1.07 1.38-.03 2.92-1.29 1.42-1.3 2.96-2.53 2.98-2.56.73-1.51 3.31-3.18.99-3.51.18-2.62 1.72-2.19-.08-1.87-3.16-2.41-2.41-.14-1.41 1.09-2.13-.49-1.08-1.37-3.45-.28 8.41-5.17 7.11-4.28 7.21-.66 6.71.38 2.72-1.08 3.41.34-.16 1.58 3.4-.22 4.89-.58-1.81-1.34 5.49-3.68 5.67-.74 1.8 2.69 5.56-2.41 1.32-1.8 2.67-.19-1.77 3.09-3.94 1.76-3.78 2.25-3.92 2.77-3.41.49-.11 1.02-1.85 1.31-1.06 3.04 1.23 4.88.94 3.2.81 1.51 3.16-2.04.66-2.23 3.27-.53.76-2.51 3.84-1.12-.92-.95.94-1.83 2.04-.08.3-3.2-2.5-.49-.08-.89 2.63-2.12.71-1.44 2.93.3 2.12-.94 1 .81 5.71-1.72 3.14 1.52.81-1 3.18-1.35 3.36-1.54 1.95-.25 6.14-1.66 4.09.48.56-.58-.25-.91-1.02-.59-1.3-1.81-1.98-1.16 2.84.16 2.82-.97.02-.01 0-8.74-3.07-.96-6.31-1.05-4.57.13-7-.61-.98.98 1.78 1.4-2.72.7-3.82-1.95-4.16.24-4.15-.43-3.89.06-2.93.45-2.71-.63.27-1.6-1.83-.91-4.37-.36-8.86.42-5.74-1.68-1.87-1.3-19.82-1.43-2.9.95 1.59 2.04-3.59-.31-1.62.62-4.25-.68-3.74.59-3.52-.99-2.11 2.31-3.46-.89-2.75-1.73 1.3-.92-1.01-1.4-3.55-1.16-3.5.01-4.66-.38-.12 1.67-9.18-.32-.53-1.03-7.04-.36-3.51.35-.97.57-1.11-1.41-1.98.41-3.25-.55-2.72-.31 1.65-.65 5.77-1.22 2.43-.65.54-1.14-1.76-.82-4.95-1.07-6.41-.03-2.01.53-.59-1.08z" /><path d="m630.58 126.01l.65-.9-5.56-1.24-1.65-.15-1.8.25-4.01 2.88 12.37-.84z" /><path d="m512.22 121.09l.84-.34-3.25-.48-2.07.37-1.26.52-.45-.59-3.33.03-4.29.4 4.89.06-1.25.69 2.38.52 2.56-.37.31-.36 1.97-.16 2.95-.29z" /><path d="m619.31 124.75l.54-1.98-5.05-2.12-4.26-1.1-4.75.49-5.7 1.5 3 .43 1.68 1.58 3.64.84 6.11.63 4.79-.27z" /><path d="m466.75 300.34l-1.31.67-.53-.22-.63.61-.08 1.31-.3.17-.21 1.2 1.34.17.67-1.25 1.16.14.64-.28.12-1.29-.87-1.23z" /><path d="m380.7 238.33l-1.36.07-.7.5-1 0-.79-.28-1.85.23-.71 1.71-.69.16-1.03 2.77-3.05 2.37-.73 3.03-.9.98-.26.79-4.94.18-.04 0-.09.92.47-.73 8.6.01-.42-3.17.54-1.12 2.05-.2-.07-5.61 7.21.11 0-3.32.04-.43 0-.15-.33 0 .05 1.18z" /><path d="m493.88 261.97l.96-.7-.22-.92.58-1.08.9.57.59-.2 2.54-.05.4.22 2.12.22.84-.11.55.73 1.02-.37 1.58-2.3 2.04-.99 6.33-.84 6.58-2.19 1.47-4.39-1.01-1.56-.44.47-6.6-1.11-.84-2.22-.08-.51-.42-.84-.61.16-.66-.44-.33-.54-.29-.72-.63-.61-.28-.74.22-.73-.13-.9-1.5-.93-.37-.77-1.08-.5-.86-1.89-1.56.06-.54-1.05-1.96-.21-4.08-.18-6.18-4.41-3.27-1.54-2.65-.59-.42.33-4.39 1.1 2.19 2.2-.73.37-.36.73-1.67.31-.53.79-.95.67-2.44-.35-.27.88-.1.77-.34 1.2 1.09-.01 1.12 1.51 1.34 1.77.85 1.63.64.49.61 1.14-.12.49.73 1.26 1.18.46 1.03.85 1.26 2.44-.09 1.3.25 1.52 1.45 2.09.98.36 1.52 1.51.62 1.79 1.17 1.84 1.13.79.17.87.66.66.29.94z" /><path d="m474.53 277.08l0-.27.65-2.29 1.04-.62.22-.89.94-1.68 1.32-1.09.89-2.16.35-1.88-.23-.88.94-3.23.22-1.46.69-.67 1.62-.36 1.11-1.25-1.2-.81-.84-.54-.8-2.62-.32-2.26.48-.4-.71-2.15-8.7 0-8.52 0-8.82 0 0 4.38-2.52.01-.03.92.11 8.71-1.89-.16-1.01 1.62-.58 1.36.46.51-.72.67.25.91-.57.92-.22.8.77-.13.46.85.02 1.28.81.64-.03.53.25.94 1.27 1.37.01.9-.36.91.14.69.76.63.18.1.67-.24.76-.41.56-1.96.6-1.02 1.59-.3.37.6 1.13 1.28.61.19.79-.38 1.58.08.3.45 2.19 0 .07-.45 1.13-.42.23-.64.83-.45 1.84 1.28 1.13-.22 1.09-1.59 1.21-1.2-.19-1.32-.53-.64 1.32-.11.15-.49 1.02.15-.26 1.62.26 1.58 1.13.87.26.75-.03 1.09.3.05z" /><path d="m474.53 277.08l-.3-.05.03-1.09-.26-.75-1.13-.87-.26-1.58.26-1.62-1.02-.15-.15.49-1.32.11.53.64.19 1.32-1.21 1.2-1.09 1.59-1.13.22-1.84-1.28-.83.45-.23.64-1.13.42-.07.45-2.19 0-.3-.45-1.58-.08-.79.38-.61-.19-1.13-1.28-.37-.6-1.59.3-.6 1.02-.56 1.96-.76.41-.67.24 1.49.86 1.2.88.02.72 1.48 1.14.91.95.56 1.32 1.64.86.35.7 1.33 1.81.99.27.58-.37 1.02.14 1.22-.46.52.94 1.93 1.45.91-.59 1.39.49 1.77-.52 1.54.01 1.35-1.01 1.35-1.31 1.49-1.45-1.3-2.39-1-.5-.38-.88-1.12-1.07-1.34-.16.74-1.25 1.17-.05.33-.67-.03-1.71z" /><path d="m363.32 268.01l2.39-.06.5-.52.69-.04.87.54.68.01.72-.37.45.64-.95.49-.96-.04-.94-.46-.81.51-.39.01-.53.31-2-.04.36 1.68 1.16-.36.73.07.59-.25 4.06.1 1.05.02 1.58.53.49-.05.16-.24 1.2.17.31-.12.1-.68-.18-.85-.82-.62-.44-1.26-.1-1.36-1.45-1.51-1.32-1.61-1.46-.58-1.05-.65-1.22.03-1.08.47-1.09-.19-.75.71-.52 1.12-1.06 1.55-.97.41 1.1.78.9 1.71z" /><path d="m755.76 320.85l-.44-.08-1.31-.53.83 1.35 1.53.01-.61-.75z" /><path d="m752.98 319.51l-.36-.58-.71-.46-1.45-.34-.14.87.46.34 1.35.22.85-.05z" /><path d="m754.8 318.91l-.88-1.05-.79-1.76-.75 0 .46 1.31 1.63 1.91.33-.41z" /><path d="m750.84 316.14l-.52-.7-1.8-1-1.01-.53-.32.22.82.73 1.2.79 1.72.93-.09-.44z" /><path d="m745.71 313.97l-.87-.72-1.32-.92-.11.36.9.9.96.5.44-.12z" /><path d="m374.9 282.95l.52-.7.12-.64.99-1.19 1.02-1.02-.6.12.02-.8-.35-.57.07-.64-.48-.93-.61-.78-1.75 0-.51.41-.61.05-.37.47-.26.61-1.17.97.27 1.62.38.8 1.15 1.18 1.58.88.59.16z" /><path d="m207.34 268.47l.16-.88-.3-.23-.45-.16-.97.26-.08-.29-.66-.36-.47-.43-.65-.19-.51.14.11.26-.41.24-.75.55-.07.32.62.47 1.22.14.91.44.79.21 1.27.03.24-.52z" /><path d="m507.39 277.1l0-1.14 0-2.21.01-.91.01-.03-1.25.07-.78.4-1.09.15-1.93.68-2.39.26-2.07.56-1.09-.01-.99-.92-.43-.9-.71-.41-.81 1.18-.48.77.81 1.21.81 1.06.84.78 7.18 2.61 1.84-.02 1.53-1.83.99-1.35z" /><path d="m509.13 272.44l-1.01.32-.71.05-.01.03-.01.91 0 2.21 0 1.14-.99 1.35-1.53 1.83-6.2 6.59-2.86.1-1.95 1.54-1.41.04-.6.7-1.92 2.48.03 8 1.3 1.81.49-.52.51-1.16 2.4-2.66 2.05-1.67 3.28-2.17 2.19-1.78 2.58-2.99 1.88-2.46 1.88-3.22 1.36-2.8 1.05-2.45.62-2.37.47-.8-.01-1.15.2-1.28-.05-.6-.83 0-1.04.75-1.16.23z" /><path d="m445.81 198.18l-.25-.7-1.19-.86-1.37-.1-1.68.58.53.85.7.63-.84.82.79 0-.55.96 1.06.85-.32 1.03-.52.09.59.38.32.3.72.24.83.46-.18.18.53-.15.3-.73.4-.12.31.31.41.13.29.35.36.11.42.4.31-.01-.24.53-.26.27.07.16.75-.13 1.01-.03.36-.31-.23-.26.36-.7.84-.69-1.06-.95-.2-.8.54-.5-.4-.38.51-.37-.54-.27-.69.49-1.28-.64-.18-.9-1.33-.52z" /><path d="m274.59 284.74l-.35 1.97-1.33.57.12.52-.41 1.13.98 1.6.7 0 .29 1.24 1.34 1.91 1.19.18.2-.45-.37-.44.22-.63.89.19 1.03-.22 1.26.46.56-.92.19-1 .38-.95-.86-1.3-.17-1.5 1.14-1.89-2.36-.59-1.77.16-.24.4-2.63-.44z" /><path d="m441.37 189.23l-.65 0-.34.4-.51.09-.14.5-.42.11-.06.2-.75.23-.97-.04-.31.48-.18.28.22.76 1.12.56.81.24 1.84-.27.18-.44.87-.06 1.07-.34.23.14 1.03-.28.52-.51.72-.14 2.35.67.47-.22.42-.89.61-.57-2.08-.84-1.58.31-1.04-.23-1.3.47-1.1-.78-.9.3-.13-.13z" /><path d="m430.3 195.78l-.24 1.08.53.94-.49.2 1.53.07.4-.37.74.36.87.04-.01-.61.76-.23.21-.88 1.75-.58-.43-.75-.36-.02-.42.37-1.92.06-1.11.49-1.81-.17z" /><path d="m448.68 153.62l3.77-.62-.74-.86-.05-3.38-3.43-1.49-2.92-1.07-1.37.09-.32 1.44-4.13-.35-.58 1.22-2.11-.01-1.45 1.56-2.2 2.44-3.4 3.08.8.75-.77.87-2.17-.03-1.43 2.05.14 2.92 1.4 1.11-.73 2.58-1.82 1.5-.97 1.27 1.67 3.1 1.84 2.49.69 2.08 2.54-.1 1.25-1.74 2.66.21 1.24-2.06.84-3.68 2.28-.52 2.02-2.47-2.1-1.22-1.56-1.54 1.6-3.09 4.23-1.89 3.49-1.77-.34-1.34 2.13-1.53zm-11.24 18.3l.33.13-1.72 2.51-.14-.82 1.53-1.82zm5.04-1.26l-1.22.67.05.46.37 0-.09.16-.57.14.04.22-.55.17-.31.44-.47.08.18-.48-.25-.34.18-.28-.13-.33 1.24-.85.83-.02.15-.12.59 0-.04.08zm3.27-12.87l.48-.02-.21.25-.32.3-.28-.02.27-.27-.05-.15.11-.09z" /><path d="m470.38 356.51l-.19-.97-.32-.98-1.11-.4-.64.15-.2.64-.6.82.02.76 1.31 1.19 1.28-.23.45-.98z" /><path d="m485.13 224.6l4.86-2.29.82-2.65-.2-1.6 1.2-.54 1.12-1.37-2.49.34-1.18-.04-2.53.82-1.81.01-1.16-.41-2.42.61-.72-.43-.12 1.23-.58.48-.59.48-.54.9.21 1.68.98.11.36.86-1.19.83-.54 1.2.03.9-.3.33.05.02 2.44.87 4.3-2.34z" /><path d="m431.81 269.63l.87 1.4.15 1.46-.08 1.45 1.19 2-1.22-.02-.62.15-1-.22-.48 1.04 1.3 1.28.95.37.31.91.69 1.51-.34.6 1.81-.17.41-.56.36.04.55.5 2.76-.84.93-.86 1.15-.76-.22-.78.62-.2 2.12.14 2.07-1.02 1.58-2.39 1.11-.89 1.39-.38.03-.53-.81-.64-.02-1.28-.46-.85-.77.13.22-.8.57-.92-.25-.91.72-.67-.46-.51.58-1.36 1.01-1.62 1.89.16-.11-8.71-8.75-4.2-8.75-4.21-2.22 1.2.54 3.41.82.58.04.69.91.76-.48.94-.84 4.45-.12 2.86-2.8 2.07-.95 2.89.92.81-.01 1.41 1.41.05-.22 1.04z" /><path d="m404.09 284.37l-.54-1.52.1-5.04-.44-.45-.08-1.08-.76-.76-.68-.65.28-1.16-1.92-.04-.16.68.92 1.13-.01 1.59.21 1.73.55.8-.48 1.98.17 1.09.59 1.39.49.77 1.76-.46z" /><path d="m625.12 271.1l-.52-2.65 1.4-1.82 2.84-.42 2.06.31.71-.99.1-1.85-1.78-1.92-.13-2.16-1.67-1.78-1.66-.15-.45.76-1.28.06-.66-.38-2.31 1.3-.05-1.96.54-2.31-1.49-.1-.12-1.32-.95-.68-1.26.51-1.28.95-1.55.1-1 2.37-.92.4 1.06 1.92 1.39 1.61.9 1.44-.81 1.91-.75.41.52 1.1 1.46 1.74.26 1.23-.04 1.02.86 2-1.21 2.04-1.06 2.26-.65 2.1-.24 1.37.42 1.22.36-1.29 1.06 1.04 1.17 1.24.38 1.09.86.84.38-.39 1.79.96.18 1.13 1.45-.27.71-.9-1.13-1.14-1.33-.25-1.23-1.26-.39-1.9-.89-2-1.43-.07-.15-1.59.71-1.94 1.19-3.2.17-2.42 1.93-.01-.32 1.73 1.88-.05 1.97 1.01z" /><path d="m555.84 209.53l-.91.06-.31-.61.45-1.02-2.93.51-.7 1.41-1.04 1.21-1.83-.1-.57.96 1.61.53.47 1.63-1.23 2.22.67.27 1.59-.7.74.42.71-1.01 1.31.05.33-.32.24-.89.94-.76 1.19.5-.24.67.66.1-.2 1.85.87.72.76-.47.98-.21 1.37-.99 1.51.17 2.26 0-.33-1.25.08-.86-1.34-.49-.72.22-.55-2.03-4.15.33-2.71-.71-2.38.17.2-1.27 2.39.37.81-.68z" /><path d="m534.32 219.61l2.24.84 1.66-.3.45-.99 1.74-.33 1.23-.67.44-1.75 1.85-.43.35-.78 1.03.59.66.06.06-1.34-2.92-.94-2.29-1.07-1.43-1.04-2.51-1.51-1.08-2.26-.74-.4-2.37.1-.84-.45-.24-1.75-2.95-1.16-1.85 1.27-1.88.76.36 1.11-2.47.03-1.13.1-1.53-1.72-1.49-.61-2.49.45-.97.73.69 1.43.22-1.61 1.77-.56.63 1.25 1.6 1.32-1.93.7-2.07-.54-.49 1.85 1.46.13-.56 1.5 1.71.75-.32 2.29.41 1.55 1.93-.42 1.56-1.25 1.46.06.97-.41 1.56.2 2.42 1.11 1.76.24 2.51 1.95 1.63.08.19 1.84z" /><path d="m674.24 317.36l.22.43.04.67 1.84-.63 2.28-.96.81-.6-.83-.27-.69.27-1.53.08-1.89.49-.25.52z" /><path d="m264.65 274.23l.04.87-.64.6.4.2 1.83-.24.09-1.64-.46-.07-1.26.28z" /><path d="m420.81 231.34l1.07-.51.19-.93-.23-.91 1.5-.84.68-.71 1.07-.63.12-1.68-.83-.35-.56-1.04-1.13-.04-.42-1.19 1.45-1.11.29-1.89-.76-.55.01-1.01 1.1-1.08-.16-.42-1.86.81.07-1.11-1.54-.27-2.39.89-.45 1.12.35 2.1-.52 1.81-1.35 1.22.2 1.65 1.79 1.31.02.53 1.35.89.94 3.94z" /><path d="m481 207.14l-3.83-1.55-3.63.05-2.55.62-2.64 1.42-4.18-.29-.93 1.67-3.38.09-2.43 2.09 1.39 1.05-1.07 1.71 1.61 1.22 1.3 2.18 2.39-.04 2.12 1.17 1.52-.26.51-.91 2.36.07 1.78 1.18 3.33-.25 1.51-1.26 1.83.5 1.34-.18-.83.82.81 1 .59-.48.58-.48.12-1.23.72.43 2.42-.61 1.16.41 1.81-.01 2.53-.82 1.18.04 2.49-.34.95-.34 2.55.28.77.56 1.05-.37-1.2-1.76.43-.68-.68-2.52 1.5-.62-.87-.64-1.63-.55.21-1.07-.37-.77-2.11-1.08-2.34.11-2.59 1.14-1.89-.19-2.56.34-3.15-.85z" /><path d="m459.67 208.55l.94-.68 2.6-.12.4-.54-1.91-.7-.26-.85-1.89-.29-2.24.69 1.07.58-.68 1.37-.52.25-.03.45.69 1.02 1.83-1.18z" /><path d="m667.23 244.31l.39-1.32-1.01-.65-1.75 1.66-1.29 2.15.25 1.63 1.15 1.85.94-1.8 1.32-3.52z" /><path d="m474.4 299.93l-4.47.17-2.41-.03-.77.27.87 1.23-.12 1.29-.64.28.13.87.47.49.02.72-.54.46-.85 1.14-.8.8-.91.1.4 2.02-.22 1.14.44 1.27 1.27 1.23 1.19 2.77.91.56.88.36 1.39.37 1.25.66 2.15.41.44.61.75 1.02.61 2.99 1.65-.18 2.64.62.57-.28 1.53-.06.78-.66 1.32.04 2.4-.85 1.74-1.27-.8-.48-.91-2.17-.77-1.37.15-1.05-.13-.67.6-1.32-.06-.57-1.41-.8-.13-1.25 1.02-2.7-3.15-2.2-.15-1.27-7.96-4.47-.37-.24z" /><path d="m469.93 300.1l4.47-.17-.02-2.33.63-.88 1.08-1.46.79-1.6-.96-2.52-.26-1.1-1.04-1.52-1.35 1.01-1.54-.01-1.77.52-1.39-.49-.91.59-.13 2.57.88.3-.71.78-.84.58-.84 1.14-.46 1.02-.12 1.77-.51.83-.02 1.66.53.22 1.31-.67.77-.27 2.41.03z" /><path d="m469.75 183.51l-1.88.13-.68.48-.14 1.11-.87-.21-1.98.1-.58-.51-.82.38-.83-.32-1.72-.04-2.45-.53-2.22-.17-1.7.05-1.2.59-1.05.09 1.1 1.91-.23.62-1.09.26-1.99 1.82.56.99-.48-.13-.61.57-.42.89 1.21.59.16.59.94-.47 1.36.24 1.41.01 1.02.54.75-.34 1.62-.21.55-.51.92 0 .53-.33 1.46-.21 1.61.68.91.08.99.59-.16.75.8.36.32.91.76.56-.15.33.41.22-.58.16-1.3-.06-.21-.31-.46.18.15.39-.6.7-.38.76-.55.23.98.41 1.03-.36.99.38 1.7-1.62.82-1.21 2.03-.27.15.82 3.41.55.64.51-2.1.73-.39.42 2.4.64-.49 1.03 1.22.45 2.98-1.27 2.4-.38.43-.79-2.24.14-1.07-.53-.13-1.37 1.89-.82 2.06-.11 1.46-.71 1.75-.18.07-.97 1.13-.62 2.12-.16.35-.73-.49-1.21.9-1.15-.03-.64-3.24-.72-1.28.03-1.35-1.03-1.69.35-2.78-.77.04-.44-.78-.95-1.75-.1-.18-.68.55-.45-1.4-1.24-2.28.21-.66-.11-.56.5-.82-.09z" /><path d="m273.54 364.15l-.54 1.76-.59 2.26.02 2.18-.47.49-.17 1.42 1.33 1.21 1.49-.07 2.03.94 1.19-.23 1.62.44 2.47-1.22.95-1.38-.6-1.24.96-1.05-1.26-1.49-1.73-1.21-2.25-1.41-.82.07-2.2-1.7-1.43.23z" /><path d="m58.67 255.97l.7-.35.86-.46.05-.13-.56-.76-.35-.3-.39-.19-.84-.37-.17-.04-.13.2.16.44-.39.35-.1.25.36.8-.06.61.54.31.32-.36z" /><path d="m57.49 252.54l.19-.26-.58-.34-.78-.21-.21.19.02.14.25.18.38.46.73-.16z" /><path d="m56 251.37l-1.08-.09-.16.27 1.17.06.07-.24z" /><path d="m54.04 251.05l-.63-.72-.19-.14-.58.3.08.09.28.5.76.07.16.03.12-.13z" /><path d="m50.33 249.61l-.05-.51-.5-.05-.34.21-.11.16.74.4.26-.21z" /><path d="m191.93 189.46l-.74.01-.01.85-4.54 0-7.51 0-7.46 0-6.59 0-6.58 0-6.47 0-6.69 0-2.16 0-6.51 0-6.24 0 .75 1.8.35 1.8-.54.58-1.17-2.08-3.17-.74-.27.43.64 1.02.69 1.87.4 2.95-.27 1.99-.26 1.99-.86 2.07.7 1.68.08 1.88-.48 1.82 1.16 1.2.31 1.79 1.7 1.84.96.72-.07.51 1.82 3.05 2.13 2.21.27 1.2.56.35 2.04.22.78.59 1.23.11.24.63 1.03.27 1.42 1.26.37 1.12 2.49-.17 2.79-.24-.21.43 3.32 1.07 5 1.54 4.37-.01 1.74 0 0-.91 3.81 0 .8.78 1.12.69 1.3.97.73 1.14.54 1.21 1.14.66 1.82.66 1.38-1.73 1.8-.04 1.54.87 1.11 1.5.75 1.29 1.3 1.25.48 1.54.62 1.03 1.71.68 1.56.48.85-.07-.42-.74-.1-1.05.02-1.52.5-.99 1.2-1.04 2.18-.95 2-1.63 1.84-.51 1.37-.15 1.6.5 1.91-.27 1.64 1.16 1.59.07.82-.42.82.33.42-.29-.47-.44.04-.89-.4-.58.91-.34 1.67-.15 1.95.24 2.48-.28 1.38.55 1.06 1.02.39.11 2.22-1 .85.34 1.71 1.84.62 1.2-.45 1.46.33.86 1.02 1.68 1.16 1.88.84.51.34.96 1.08.27.66-.28.55-1.34.09-.85.07-1.48-1.04-2.55-.01-.95-.98-1.55-.73-1.88-.39-1.52.34-1.56 1.04-1.3 1.23-1.04 2.41-1.43.32-.74 1.11-.8 1.09-.14 1.45-1.29 2.27-.65 1.39-1.63-.31-2.19-.23-.76-.63-.16-.09-2.08-1.51-.71 1.45.34-.47-1.39.42-.95.26 1.83 1.12.83-.68 1.5.2.08 1.24-1.75.7-.85-.03-.83-.55-.39-.45-1.18.72.55.48.11.16.56 1.6-1.68.47-1.58-.64-.1.67-.61-.07.27 1.4-.01 3.07-.65-.65-.42-3.22.41 1.83-.63 1.27-.11.96-.11 1.62-.38 1.05.04 1.49-.36.17-.62-.66-.49.23.8-.91-.05-.72-1.17.02-1.16.37-.49 1.16-1.31 2.32-.65 2.26-.75 2.34-1.07-.38-.72-1.43-1.24 0-2.99-.98-.63-1.47.37-.73-.58-1.67 1.66-.67 1.71-.78 1-.93.34-.7.11-.22.54-4.05 0-3.33.01-.99.41-2.32 1.58-.27.17-.71.85-2.01 0-2.16.01-.99.35.36.43.19.67-.04.22-2.87 1.09-2.26.35-2.55 1.17-.55 0-.74-.34-.25-.32.05-.23.48-.77 1.03-1.2.64-1.3-.44-1.91-.46-1.99-2.29-1.03.27-.39-.32-.27-.6 0-.44-.34-.12-.52-.42.22-.59-.06.13-.22-.51-.22-.22-.57-1.7-.71-1.78-.73-2.14-.85-2.06-.79-1.96.62-.72.02-2.7-.57-1.78.28-2.13-.68-2.24-.35-1.53-.13-.68-.37-.39-1.21z" /><path d="m64.24 172.51l1.89-1.05-.92-.68-1.46-.14-1.17.33-2 .78.34 1.03 1.12.56 2.2-.83z" /><path d="m36.65 166.38l-.21-.85-1.74-.19-2.17.37 1.33.6 1.44.41 1.35-.34z" /><path d="m23.14 157.88l-.13.82.53.2 1.93-.13.84.4 1.67.48 1.66-.47.18-.24-2.18-.29-1.77-.58-1.37.23-1.36-.42z" /><path d="m59.71 141.72l-3.32-.47-3.37 1.17-2.02-.14-4.16.97-2.14.25-2.24 1.05-.52 1.06-2.77 1-3.9.08-1.23 1.15 3.02.69 2.11.93 1.56 1.1 2.7.84 1.78 1.36-4.63.08.29-1.09-1.8 0-4.9 1.07-3.08.92 2.78 1.27.92.88 3.21.53 3.11-.25 1.73.49.67-.49 2.32-.47 1.35-.03-1.62.85 1.23.39.4 1-1.67.68-1.59-.18-1.77 1.05-1.51-.35-1.77.16-.79 1.13-1.79 1.23-.84 1.26 1.69.93.01 1.24 1.5.53 1.85 1.03 2.85-.42 1.42.78-.4.81.19 1.3 1.35.01 2.19-.88.82 1.09.59-.79 1.43 1.12 1.19-.8.71.38 2.53-.67-1.12 1.3-.37 1.66-1.62.78-.49.44-3.05 1.31-1.08.9-2.72.25-2.34 1.2-2.15.67-2.4 1.03.35.37 3.76-.63 1.83-.73 2.22-.75 2.05-.61 1.51.17 2.57-.94.69-1.03 3.43-1.13.54-.98 2.2-.67 2.36-.91 2.07-1.58-1.61-1.07 3.17-1.56 1.49-1.46 2.8-1.22.6.55-2.33.68-.99 2.15.32 1.29 2.43-.47 1.93-.74 2.54-.45 1.21-.14-.45-1.53 2.44-.46 2.6.93 4.32 1.01 3.04-.19 3.84.79 2.1.41 4.54 2.28 2.57.63 3.49.06 2.1.14 1.19 2.07 2.82 1.77.63 1.92 1.93.7 1.21.82 1.22-1.05-.06-1.39-3.74-1.4-2.24-2.5-1.37-1.57-2.01-.99-1.48-.9-1.16-1.14-2.21.71-2.13 1.23-1.95-1.44-1.53-.96-2.14-.61-2.16-.06.01-12.5.01-8.14-2.38-.31-3.33-.66-2.92.36-1.69-.29-4.22-.21-4.62-.69-2.24.22-3.36-.37.13-.51-3.71-.13-.97.43-1.59-.99z" /><path d="m545.97 215.85l1.22.02 1.66.46 1.23-2.22-.47-1.63-1.61-.53.57-.96 1.83.1 1.04-1.21.7-1.41 2.93-.51-.45 1.02.31.61.91-.06 1.67.22 2.81-1.58-2.61-1.16-1.56.55-1.62-.83 1.84-1.42-.65-.22-1.26.41-2.89 1.53-.96 1.57-.82.01-.6-1.04-2.79-.07-.45-1.79-1.07-.02.17-2.2-2.63-1.6-3.76.17-2.58.32-2.09-1.98-1.8-.83-3.4-1.57-.41-.19-5.65 1.29.09 8.1 2.47-.03-.36-1.11 1.88-.76 1.85-1.27 2.95 1.16.24 1.75.84.45 2.37-.1.74.4 1.08 2.26 2.51 1.51 1.43 1.04 2.29 1.07 2.92.94-.06 1.34z" /><path d="m243.47 272l-1.41.37-.56 1.1-.85.63-.64.81-.27 1.57-.6 1.28 1.13.15.28 1.01.48.48.18.88-.26.82.07.45.54.19.53.76 2.82-.21 1.27.28 1.55 1.89.89-.24 1.58.12 1.25-.25.77.38-.39 1.18-.49.74-.17 1.57.44 1.46.62.65.08.49-1.12 1.1.8.48.58.77.67 2.18 1.21 1.17 1.71-.15.42-.67 1.63-.51.91-.36.25-.93 1.57-.62-.12-.47-1.86-.18-.3-1.39.09-1.47-.99-.57.42-.2 1.62.28 1.75.55.63-.52 1.58-.34 2.45-.82.8-.84-.29-.62-1.48-1.66.59-.61-.04-1.01 1.35-.35.54-.41-.75-.82.2-.8 1.73-1.29-.86-.51-1.14.05-.35-1.76-1.66-1.08-1.76-.17-.75-1.03 1.87-.65-2.63.03-2.72.13-.03.56-1.23.68-1.68-.27-1.25-.98-2.35.22-1.97-.02-.08-.72-1.43-1.23-1.54-.03-.79-1.54-.77.69.31 1.03-2.73.89.11 1.67.68.77-.5 1.58-.94.15-.83-1.74.97-1.28.02-1.15-.71-.99 1.28-.26.07-.52z" /><path d="m637.11 250.55l-2.21-.57-1.04-.89.34-1.27-2-.4-1.06-.82-1.87 1.17-2.14.25-1.75-.01-1.17.54 1.28 1.73.99 1.99 2.7.02.85 1.92-1.41.57-.62.79 2.62 1.31 1.83 2.59 1.38 1.94 1.66 1.52.55 1.55-.39 2.2.5 1.46-.27 2.63-3.68 1.69.96 1.33-2.3.16-1.9.88 1.62 1.25-.61 1.49.79 1.4 2.74-2.04 1.79-1.83 2.51-1.41 1.83-1.45.3-3.86-1.01-4.06-1.33-1.76-1.99-1.36-2.05-2.86-1.68-2.32.48-1.52 1.83-2.07 2.93-1.88z" /><path d="m768.33 333.98l-1.38-1.26-.08.59.73.96.73-.29z" /><path d="m766.71 330.62l-1.05-.68.04 1.68.32.61.45-.12.59.28-.35-1.77z" /><path d="m478 226.76l-.79-.31-.46 1.47.55.24-.56.3-.09.58 1.03-.3.32-.64 0-1.34z" /><path d="m516.54 261.31l-.71-1.54-1.72-3.62-6.33.84-2.04.99-1.58 2.3-1.02.37-.55-.73-.84.11-2.12-.22-.4-.22-2.54.05-.59.2-.9-.57-.58 1.08.22.92-.96.7.09.96-.26.42.22 1-.44.11.63.9.43 1.63.36.64-.06 1.2.57 1.28 1.52.12.7-.3 1.09.05.34-.56.57-.16.48-.58.56-.13 1.84-.11 1.4-.42 1.28-.91.66.13.96-.12 1.97-1.55 3.51-1.03 2.18-.92.05-.75.43-.98 1.58-.58z" /><path d="m469.17 362.05l1.5-1.11.57-.99.26-1.82.54-1.6-1.66-.02-.45.98-1.28.23-1.31-1.19-.02-.76.6-.82.2-.64.64-.15 1.11.4-.19-.79.39-2.45-.57-1.56-1.05-3.09-1.17-.21-.74.26-1.06-.37-.89-.03-3.11 1.62-1.97 1.64-.73 1.46-.66.82-1.19.18-.39 1.05-.22.68-1.4.52-1.79-.11-1.05-.62-.92-.26-1.07.5-.54 1.06-1.04.66-1.1.98-1.57.22-.49-.77.2-1.34-1.3-2.08-.59-.33 0 8.1-1.96 1.12-1.18.16-1.38-.41-.98-.16-.37-.94-.87-.6-1.05 1.09 1.57 2.85.01 0 1.1 1.86 1.44 2.05.05 1.69-.7.4.71 1.47-.01 1.29.29.59.1-.31.95.98.74.04.93.78 1-.05 1.35-.83 1.87-.35 2.27-.86.91.11 1.33-.26 2.37.42 1.09-.42 1.33.32.29-.6 1.12-.12 2.29-.85 1.66-1 1.55-1.32 2.48-2.26 1.24-1.57.61-1.13.93-1.11.43-.32zm-5.58-.66l.76.66-.67 1.07-.37.71-1.23.34-.4.71-.79.21-1.64-1.68 1.17-1.39 1.19-.86 1.02-.45.96.68z" /><path d="m471.89 318.1l-1.25-.66-1.39-.37-.88-.36-.91-.56-.87-.23-2.94.37-.59.27-.63 1.4.49.96-.39 2.6-.27 2.21.59.39 1.54.85.6-.4.18 2.37-1.68-.02-.9-1.21-.81-.93-1.68-.31-.49-1.15-1.34.69-1.76-.3-.73-1-1.39-.2-1.03.05-.13-.68-.76-.06.24.68-.25 1.07.38 1.03-.32.82.18.76-4.57-.03-.1 6.98 1.48 1.8 1.43 1.37 1.8-.5 1.42.13.87.49.02.18.39.17 2.45.24.72.25.74-.05 1.21-1.42 1.91-1.81.79-.17.26-.76 1.25-.87 1.67-.3-.21-1.57 6.66-1.8-1.16-.57.67-2.04.69-.77-.42-1.81.44-1.78.37-.6-.56-1.86-1.03-.98z" /><path d="m468.45 346.67l2.31-2.49.58-1.58.33-.2.25-1.29-.35-.65.09-1.64.43-1.52-.01-2.78-1.14-.7-1.04-.16-.48-.55-1.01-.46-1.83.04-.14-.81-1.67.3-1.25.87-.26.76-.79.17-1.91 1.81-1.21 1.42-.74.05-.72-.25-2.45-.24.85 1.75.44.39.69 1.27 2.48 2.41.94.24.01.77.64 1.39 1.7.34 1.4.99.89.03 1.06.37.74-.26 1.17.21z" /></g></g></svg>